<svg xmlns="http://www.w3.org/2000/svg" xmlns:xlink="http://www.w3.org/1999/xlink" version="1.1" width="1000" height="1000" viewBox="0 0 1000 1000" xml:space="preserve">
<desc>Created with Fabric.js 3.5.0</desc>
<defs>
</defs>
<rect x="0" y="0" width="100%" height="100%" fill="#ffffff"/>
<g transform="matrix(0.774 0 0 0.774 499.9879 499.9922)" id="922601">
<g style="" vector-effect="non-scaling-stroke">
		<g transform="matrix(1 0 0 1 -378.2261 169.6087)">
<path style="stroke: none; stroke-width: 1; stroke-dasharray: none; stroke-linecap: butt; stroke-dashoffset: 0; stroke-linejoin: miter; stroke-miterlimit: 4; is-custom-font: none; font-file-url: none; fill: rgb(240,240,240); fill-rule: nonzero; opacity: 1;" transform=" translate(-221.7739, -619.6087)" d="M 176.48137 606.86124 c 4.48183 -45.74693 31.57027 -91.41208 74.6711 -107.3851 a 211.78287 211.78287 0 0 0 3.80025 145.35351 c 7.15367 17.90139 16.97423 37.0672 11.16353 55.44857 c -3.61532 11.43741 -12.95662 20.35944 -23.50968 26.061 c -10.55372 5.7016 -22.35566 8.59565 -34.01041 11.43411 l -2.257 1.96793 C 186.63718 698.21181 171.99953 652.60817 176.48137 606.86124 Z" stroke-linecap="round"/>
</g>
		<g transform="matrix(1 0 0 1 -371.4455 168.4926)">
<path style="stroke: none; stroke-width: 1; stroke-dasharray: none; stroke-linecap: butt; stroke-dashoffset: 0; stroke-linejoin: miter; stroke-miterlimit: 4; is-custom-font: none; font-file-url: none; fill: rgb(255,255,255); fill-rule: nonzero; opacity: 1;" transform=" translate(-228.5545, -618.4926)" d="M 251.6065 500.32709 c -24.3354 28.72351 -39.652 65.40748 -42.33 103.01475 c -0.579 8.1306 -0.4587 16.42884 1.52256 24.37642 a 44.70919 44.70919 0 0 0 11.65642 20.44014 c 5.15372 5.37408 11.04774 10.27436 14.80536 16.80764 c 3.96072 6.88643 4.31282 14.819 1.91945 22.30586 c -2.92836 9.1604 -8.97355 16.7223 -15.14224 23.91176 c -6.84915 7.98252 -14.08974 16.16536 -16.818 26.58246 c -0.33057 1.26217 -2.26971 0.67544 -1.93964 -0.58483 c 4.74673 -18.124 21.94191 -28.79677 29.84688 -45.21542 c 3.6886 -7.66125 5.09074 -16.48052 1.23988 -24.36584 c -3.36741 -6.89536 -9.44106 -11.95377 -14.70634 -17.35 c -5.52863 -5.66617 -9.81771 -11.92932 -12.14213 -19.56139 c -2.37774 -7.80719 -2.8227 -16.11821 -2.45413 -24.22795 a 175.619 175.619 0 0 1 11.43083 -53.68534 a 184.22708 184.22708 0 0 1 31.73151 -53.93217 c 0.84063 -0.99221 2.21479 0.49823 1.37966 1.48395 Z" stroke-linecap="round"/>
</g>
		<g transform="matrix(1 0 0 1 -400.5708 126.6568)">
<path style="stroke: none; stroke-width: 1; stroke-dasharray: none; stroke-linecap: butt; stroke-dashoffset: 0; stroke-linejoin: miter; stroke-miterlimit: 4; is-custom-font: none; font-file-url: none; fill: rgb(255,255,255); fill-rule: nonzero; opacity: 1;" transform=" translate(-199.4292, -576.6569)" d="M 209.502 591.07182 a 27.15836 27.15836 0 0 1 -21.40734 -27.90091 a 1.01382 1.01382 0 0 1 2.02582 0.0483 a 25.148 25.148 0 0 0 19.96635 25.913 c 1.27568 0.26837 0.68355 2.20648 -0.58483 1.93965 Z" stroke-linecap="round"/>
</g>
		<g transform="matrix(1 0 0 1 -368.4805 181.0249)">
<path style="stroke: none; stroke-width: 1; stroke-dasharray: none; stroke-linecap: butt; stroke-dashoffset: 0; stroke-linejoin: miter; stroke-miterlimit: 4; is-custom-font: none; font-file-url: none; fill: rgb(255,255,255); fill-rule: nonzero; opacity: 1;" transform=" translate(-231.5195, -631.0249)" d="M 219.48341 645.77769 a 52.34557 52.34557 0 0 0 22.58173 -30.7462 c 0.335 -1.261 2.27427 -0.67461 1.93964 0.58483 a 54.44728 54.44728 0 0 1 -23.56337 31.94644 c -1.10563 0.69542 -2.05763 -1.09342 -0.958 -1.78507 Z" stroke-linecap="round"/>
</g>
		<g transform="matrix(1 0 0 1 -364.8087 86.0269)">
<path style="stroke: none; stroke-width: 1; stroke-dasharray: none; stroke-linecap: butt; stroke-dashoffset: 0; stroke-linejoin: miter; stroke-miterlimit: 4; is-custom-font: none; font-file-url: none; fill: rgb(255,255,255); fill-rule: nonzero; opacity: 1;" transform=" translate(-235.1913, -536.0269)" d="M 227.84859 534.9895 a 15.37292 15.37292 0 0 0 14.54413 -1.119 c 1.09627 -0.70909 2.04714 1.08059 0.958 1.78507 a 17.22664 17.22664 0 0 1 -16.087 1.27357 a 1.047 1.047 0 0 1 -0.67741 -1.26224 a 1.01808 1.01808 0 0 1 1.26224 -0.67741 Z" stroke-linecap="round"/>
</g>
		<g transform="matrix(1 0 0 1 -304.3793 207.8652)">
<path style="stroke: none; stroke-width: 1; stroke-dasharray: none; stroke-linecap: butt; stroke-dashoffset: 0; stroke-linejoin: miter; stroke-miterlimit: 4; is-custom-font: none; font-file-url: none; fill: rgb(240,240,240); fill-rule: nonzero; opacity: 1;" transform=" translate(-295.6207, -657.8651)" d="M 385.83271 577.46554 c -0.67194 0.46224 -1.34388 0.92448 -2.0162 1.40385 a 202.453 202.453 0 0 0 -25.35041 20.8777 c -0.61791 0.58057 -1.23537 1.17825 -1.83531 1.77536 a 213.4309 213.4309 0 0 0 -44.68323 64.63776 a 207.26687 207.26687 0 0 0 -10.58392 29.66048 c -3.82564 14.00525 -6.85927 29.49489 -14.85286 41.07746 a 35.55812 35.55812 0 0 1 -2.68 3.49066 L 208.915 742.34206 c -0.17248 -0.081 -0.34535 -0.145 -0.51867 -0.226 l -2.98759 0.21475 c 0.10637 -0.533 0.22814 -1.0835 0.33451 -1.61649 c 0.06041 -0.30943 0.13752 -0.6193 0.19793 -0.92874 c 0.04557 -0.20642 0.092 -0.413 0.12128 -0.60186 c 0.01491 -0.06876 0.03065 -0.13755 0.046 -0.18932 c 0.02931 -0.18888 0.0766 -0.36121 0.10636 -0.533 q 1.00829 -4.61864 2.085 -9.23916 c -0.00044 -0.01711 -0.00044 -0.01711 0.0158 -0.03465 c 5.5293 -23.45682 13.06545 -46.65811 23.88353 -67.978 c 0.32569 -0.64133 0.6501 -1.29975 1.01 -1.942 A 197.78 197.78 0 0 1 250.266 631.86718 a 174.84769 174.84769 0 0 1 11.29281 -13.61835 a 145.39679 145.39679 0 0 1 35.6617 -28.19346 c 26.4996 -14.88715 57.46538 -21.13354 86.4069 -13.21642 C 384.36766 577.042 385.092 577.24538 385.83271 577.46554 Z" stroke-linecap="round"/>
</g>
		<g transform="matrix(1 0 0 1 -303.8765 208.9376)">
<path style="stroke: none; stroke-width: 1; stroke-dasharray: none; stroke-linecap: butt; stroke-dashoffset: 0; stroke-linejoin: miter; stroke-miterlimit: 4; is-custom-font: none; font-file-url: none; fill: rgb(255,255,255); fill-rule: nonzero; opacity: 1;" transform=" translate(-296.1235, -658.9375)" d="M 385.68908 578.42077 c -36.724 8.28252 -71.03976 28.35094 -95.82017 56.7659 c -5.35746 6.14324 -10.25754 12.84133 -13.46061 20.37989 a 44.70911 44.70911 0 0 0 -2.99937 23.33828 c 0.87939 7.39379 2.63513 14.855 1.70188 22.33381 c -0.98369 7.88305 -5.47849 14.42874 -11.89708 18.96561 c -7.85333 5.551 -17.23287 7.94913 -26.48677 9.97554 c -10.27469 2.24993 -20.98253 4.42413 -29.43272 11.099 c -1.02386 0.80875 -2.2189 -0.82722 -1.19659 -1.63475 c 14.70188 -11.61312 34.857 -9.78206 51.05387 -18.1321 c 7.55775 -3.89629 13.98709 -10.0938 15.65989 -18.70826 c 1.4628 -7.533 -0.34116 -15.22859 -1.29626 -22.70727 c -1.00288 -7.85274 -0.65662 -15.43583 2.0825 -22.92908 c 2.802 -7.66517 7.4505 -14.56894 12.62741 -20.82222 a 175.61909 175.61909 0 0 1 41.44916 -35.98259 A 184.22707 184.22707 0 0 1 385.481 576.40527 c 1.26856 -0.28611 1.46841 1.73126 0.20813 2.0155 Z" stroke-linecap="round"/>
</g>
		<g transform="matrix(1 0 0 1 -304.93 157.9421)">
<path style="stroke: none; stroke-width: 1; stroke-dasharray: none; stroke-linecap: butt; stroke-dashoffset: 0; stroke-linejoin: miter; stroke-miterlimit: 4; is-custom-font: none; font-file-url: none; fill: rgb(255,255,255); fill-rule: nonzero; opacity: 1;" transform=" translate(-295.07, -607.9421)" d="M 297.43643 625.52556 a 27.15837 27.15837 0 0 1 -0.29429 -35.166 c 0.839 -0.99754 2.42856 0.25939 1.58843 1.25826 a 25.14805 25.14805 0 0 0 0.34061 32.71117 c 0.857 0.98232 -0.78267 2.17329 -1.63475 1.19659 Z" stroke-linecap="round"/>
</g>
		<g transform="matrix(1 0 0 1 -309.0368 220.7263)">
<path style="stroke: none; stroke-width: 1; stroke-dasharray: none; stroke-linecap: butt; stroke-dashoffset: 0; stroke-linejoin: miter; stroke-miterlimit: 4; is-custom-font: none; font-file-url: none; fill: rgb(255,255,255); fill-rule: nonzero; opacity: 1;" transform=" translate(-290.9631, -670.7264)" d="M 272.46929 675.21461 a 52.34551 52.34551 0 0 0 36.54158 -10.95336 c 1.02669 -0.80509 2.222 0.83063 1.19659 1.63475 a 54.44724 54.44724 0 0 1 -38.048 11.32067 c -1.30148 -0.11041 -0.98459 -2.11187 0.30982 -2.00206 Z" stroke-linecap="round"/>
</g>
		<g transform="matrix(1 0 0 1 -248.4987 146.5207)">
<path style="stroke: none; stroke-width: 1; stroke-dasharray: none; stroke-linecap: butt; stroke-dashoffset: 0; stroke-linejoin: miter; stroke-miterlimit: 4; is-custom-font: none; font-file-url: none; fill: rgb(255,255,255); fill-rule: nonzero; opacity: 1;" transform=" translate(-351.5013, -596.5207)" d="M 345.85055 591.79286 a 15.373 15.373 0 0 0 12.28639 7.86312 c 1.30223 0.09386 0.98393 2.09531 -0.30983 2.00206 a 17.22664 17.22664 0 0 1 -13.61131 -8.66859 a 1.047 1.047 0 0 1 0.21908 -1.41567 a 1.01807 1.01807 0 0 1 1.41567 0.21908 Z" stroke-linecap="round"/>
</g>
		<g transform="matrix(1 0 0 1 238.9428 -272.7772)">
<path style="stroke: none; stroke-width: 1; stroke-dasharray: none; stroke-linecap: butt; stroke-dashoffset: 0; stroke-linejoin: miter; stroke-miterlimit: 4; is-custom-font: none; font-file-url: none; fill: rgb(232,26,65); fill-rule: nonzero; opacity: 1;" transform=" translate(-838.9428, -177.2229)" d="M 825.52225 196.935 c -1.11853 -3.30279 -15.14533 -14.52982 -6.55011 -16.41685 l 7.04864 9.39857 l 32.40662 -32.406 l 3.25928 3.2593 Z" stroke-linecap="round"/>
</g>
		<g transform="matrix(1 0 0 1 238.9428 -162.5832)">
<path style="stroke: none; stroke-width: 1; stroke-dasharray: none; stroke-linecap: butt; stroke-dashoffset: 0; stroke-linejoin: miter; stroke-miterlimit: 4; is-custom-font: none; font-file-url: none; fill: rgb(232,26,65); fill-rule: nonzero; opacity: 1;" transform=" translate(-838.9428, -287.4169)" d="M 825.52225 307.129 c -1.11853 -3.30276 -15.14533 -14.52982 -6.55011 -16.41684 l 7.04864 9.39859 l 32.40662 -32.406 l 3.25928 3.25928 Z" stroke-linecap="round"/>
</g>
		<g transform="matrix(1 0 0 1 238.9428 -50.815)">
<path style="stroke: none; stroke-width: 1; stroke-dasharray: none; stroke-linecap: butt; stroke-dashoffset: 0; stroke-linejoin: miter; stroke-miterlimit: 4; is-custom-font: none; font-file-url: none; fill: rgb(232,26,65); fill-rule: nonzero; opacity: 1;" transform=" translate(-838.9428, -399.185)" d="M 825.52225 418.89715 c -1.11853 -3.30277 -15.14533 -14.52979 -6.55011 -16.41684 l 7.04864 9.39859 l 32.40662 -32.406 l 3.25928 3.25928 Z" stroke-linecap="round"/>
</g>
		<g transform="matrix(1 0 0 1 195.681 -131.4645)">
<circle style="stroke: none; stroke-width: 1; stroke-dasharray: none; stroke-linecap: butt; stroke-dashoffset: 0; stroke-linejoin: miter; stroke-miterlimit: 4; is-custom-font: none; font-file-url: none; fill: rgb(63,61,86); fill-rule: nonzero; opacity: 1;" cx="0" cy="0" r="10"/>
</g>
		<g transform="matrix(1 0 0 1 195.681 -240.4645)">
<circle style="stroke: none; stroke-width: 1; stroke-dasharray: none; stroke-linecap: butt; stroke-dashoffset: 0; stroke-linejoin: miter; stroke-miterlimit: 4; is-custom-font: none; font-file-url: none; fill: rgb(63,61,86); fill-rule: nonzero; opacity: 1;" cx="0" cy="0" r="10"/>
</g>
		<g transform="matrix(1 0 0 1 371.6808 -262.4646)">
<rect style="stroke: none; stroke-width: 1; stroke-dasharray: none; stroke-linecap: butt; stroke-dashoffset: 0; stroke-linejoin: miter; stroke-miterlimit: 4; is-custom-font: none; font-file-url: none; fill: rgb(63,61,86); fill-rule: nonzero; opacity: 1;" x="-80.5" y="-1" rx="0" ry="0" width="161" height="2"/>
</g>
		<g transform="matrix(1 0 0 1 200.681 -15.2705)">
<circle style="stroke: none; stroke-width: 1; stroke-dasharray: none; stroke-linecap: butt; stroke-dashoffset: 0; stroke-linejoin: miter; stroke-miterlimit: 4; is-custom-font: none; font-file-url: none; fill: rgb(63,61,86); fill-rule: nonzero; opacity: 1;" cx="0" cy="0" r="10"/>
</g>
		<g transform="matrix(1 0 0 1 371.6808 -152.2708)">
<rect style="stroke: none; stroke-width: 1; stroke-dasharray: none; stroke-linecap: butt; stroke-dashoffset: 0; stroke-linejoin: miter; stroke-miterlimit: 4; is-custom-font: none; font-file-url: none; fill: rgb(63,61,86); fill-rule: nonzero; opacity: 1;" x="-80.5" y="-1" rx="0" ry="0" width="161" height="2"/>
</g>
		<g transform="matrix(1 0 0 1 371.6808 -40.5027)">
<rect style="stroke: none; stroke-width: 1; stroke-dasharray: none; stroke-linecap: butt; stroke-dashoffset: 0; stroke-linejoin: miter; stroke-miterlimit: 4; is-custom-font: none; font-file-url: none; fill: rgb(63,61,86); fill-rule: nonzero; opacity: 1;" x="-80.5" y="-1" rx="0" ry="0" width="161" height="2"/>
</g>
		<g transform="matrix(1 0 0 1 225.7792 -41.7028)">
<polygon style="stroke: none; stroke-width: 1; stroke-dasharray: none; stroke-linecap: butt; stroke-dashoffset: 0; stroke-linejoin: miter; stroke-miterlimit: 4; is-custom-font: none; font-file-url: none; fill: rgb(63,61,86); fill-rule: nonzero; opacity: 1;" points="25,25.5 -25,25.5 -25,-25.5 9,-25.5 9,-23.5 -23,-23.5 -23,23.5 23,23.5 23,0.5 25,0.5 25,25.5 "/>
</g>
		<g transform="matrix(1 0 0 1 225.7792 -153.7028)">
<polygon style="stroke: none; stroke-width: 1; stroke-dasharray: none; stroke-linecap: butt; stroke-dashoffset: 0; stroke-linejoin: miter; stroke-miterlimit: 4; is-custom-font: none; font-file-url: none; fill: rgb(63,61,86); fill-rule: nonzero; opacity: 1;" points="25,25.5 -25,25.5 -25,-25.5 9,-25.5 9,-23.5 -23,-23.5 -23,23.5 23,23.5 23,0.5 25,0.5 25,25.5 "/>
</g>
		<g transform="matrix(1 0 0 1 225.7792 -267.7028)">
<polygon style="stroke: none; stroke-width: 1; stroke-dasharray: none; stroke-linecap: butt; stroke-dashoffset: 0; stroke-linejoin: miter; stroke-miterlimit: 4; is-custom-font: none; font-file-url: none; fill: rgb(63,61,86); fill-rule: nonzero; opacity: 1;" points="25,25.5 -25,25.5 -25,-25.5 9,-25.5 9,-23.5 -23,-23.5 -23,23.5 23,23.5 23,0.5 25,0.5 25,25.5 "/>
</g>
		<g transform="matrix(1 0 0 1 -49.297 -95.0987)">
<path style="stroke: none; stroke-width: 1; stroke-dasharray: none; stroke-linecap: butt; stroke-dashoffset: 0; stroke-linejoin: miter; stroke-miterlimit: 4; is-custom-font: none; font-file-url: none; fill: rgb(160,97,106); fill-rule: nonzero; opacity: 1;" transform=" translate(-550.7029, -354.9013)" d="M 524.324 338.56887 s -13.36292 56.4212 2.96954 56.4212 S 582.23 331.145 582.23 331.145 L 568.867 314.81255 l -23.985 33.29993 l -1.2561 -16.96747 Z" stroke-linecap="round"/>
</g>
		<g transform="matrix(1 0 0 1 -21.3308 -129.4022)">
<circle style="stroke: none; stroke-width: 1; stroke-dasharray: none; stroke-linecap: butt; stroke-dashoffset: 0; stroke-linejoin: miter; stroke-miterlimit: 4; is-custom-font: none; font-file-url: none; fill: rgb(160,97,106); fill-rule: nonzero; opacity: 1;" cx="0" cy="0" r="13"/>
</g>
		<g transform="matrix(1 0 0 1 -74.2398 239.4717)">
<polygon style="stroke: none; stroke-width: 1; stroke-dasharray: none; stroke-linecap: butt; stroke-dashoffset: 0; stroke-linejoin: miter; stroke-miterlimit: 4; is-custom-font: none; font-file-url: none; fill: rgb(160,97,106); fill-rule: nonzero; opacity: 1;" points="-12.766,33.3735 4.537,33.3725 12.77,-33.3735 -12.77,-33.3725 -12.766,33.3735 "/>
</g>
		<g transform="matrix(1 0 0 1 -61.0096 276.5165)">
<path style="stroke: none; stroke-width: 1; stroke-dasharray: none; stroke-linecap: butt; stroke-dashoffset: 0; stroke-linejoin: miter; stroke-miterlimit: 4; is-custom-font: none; font-file-url: none; fill: rgb(47,46,65); fill-rule: nonzero; opacity: 1;" transform=" translate(-538.9903, -726.5165)" d="M 512.38428 740.89682 l 53.2129 -0.002 v -0.673 a 20.71307 20.71307 0 0 0 -20.71194 -20.71162 H 544.884 l -9.72 -7.37412 l -18.13541 7.37524 l -4.64513 0.00016 Z" stroke-linecap="round"/>
</g>
		<g transform="matrix(1 0 0 1 -246.8153 225.2577)">
<polygon style="stroke: none; stroke-width: 1; stroke-dasharray: none; stroke-linecap: butt; stroke-dashoffset: 0; stroke-linejoin: miter; stroke-miterlimit: 4; is-custom-font: none; font-file-url: none; fill: rgb(160,97,106); fill-rule: nonzero; opacity: 1;" points="-26.3275,25.9985 -10.8445,33.7245 26.3275,-22.3205 3.4755,-33.7245 -26.3275,25.9985 "/>
</g>
		<g transform="matrix(1 0 0 1 -256.7008 269.4487)">
<path style="stroke: none; stroke-width: 1; stroke-dasharray: none; stroke-linecap: butt; stroke-dashoffset: 0; stroke-linejoin: miter; stroke-miterlimit: 4; is-custom-font: none; font-file-url: none; fill: rgb(47,46,65); fill-rule: nonzero; opacity: 1;" transform=" translate(-343.2992, -719.4487)" d="M 318.25035 717.13553 l 47.61317 23.76129 l 0.30052 -0.60213 a 20.71307 20.71307 0 0 0 -9.28291 -27.781 l -0.00115 -0.00057 l -5.404 -10.93862 l -19.52019 -1.49967 l -4.15631 -2.07422 Z" stroke-linecap="round"/>
</g>
		<g transform="matrix(1 0 0 1 -167.2558 292.0824)">
<rect style="stroke: none; stroke-width: 1; stroke-dasharray: none; stroke-linecap: butt; stroke-dashoffset: 0; stroke-linejoin: miter; stroke-miterlimit: 4; is-custom-font: none; font-file-url: none; fill: rgb(204,204,204); fill-rule: nonzero; opacity: 1;" x="-284.92495" y="-1.12035" rx="0" ry="0" width="569.8499" height="2.2407"/>
</g>
		<g transform="matrix(1 0 0 1 -161.8259 108.5532)">
<path style="stroke: none; stroke-width: 1; stroke-dasharray: none; stroke-linecap: butt; stroke-dashoffset: 0; stroke-linejoin: miter; stroke-miterlimit: 4; is-custom-font: none; font-file-url: none; fill: rgb(47,46,65); fill-rule: nonzero; opacity: 1;" transform=" translate(-438.1741, -558.5532)" d="M 401.1174 440.9251 s -6.91528 83.1485 -8.4 100.9657 a 126.70952 126.70952 0 0 1 -7.42383 32.66492 s -2.96954 5.93908 -2.96954 11.87817 l -33.65482 61.16389 s -10.28424 7.55932 -8.7995 13.4984 s -6.2005 9.5016 -6.2005 9.5016 l 35.44159 6.83086 s -1.48477 -4.45428 2.96954 -5.93908 s 8 -14.36292 8 -14.36292 l 49.75629 -81.08612 L 465.471 501.80209 s 20.78677 66.8146 25.24106 74.23843 c 0 0 16.33246 83.147 19.302 90.57092 s 4.45432 7.42383 2.96954 10.39337 s -1.48477 5.93909 0 7.42383 s 29.69538 0 29.69538 0 l -7.42386 -105.41858 L 521.89224 452.80465 l -68.29937 -20.78677 Z" stroke-linecap="round"/>
</g>
		<g transform="matrix(1 0 0 1 -132.0138 -238.7512)">
<circle style="stroke: none; stroke-width: 1; stroke-dasharray: none; stroke-linecap: butt; stroke-dashoffset: 0; stroke-linejoin: miter; stroke-miterlimit: 4; is-custom-font: none; font-file-url: none; fill: rgb(160,97,106); fill-rule: nonzero; opacity: 1;" cx="0" cy="0" r="31.18014"/>
</g>
		<g transform="matrix(1 0 0 1 -137.7683 -94.8172)">
<path style="stroke: none; stroke-width: 1; stroke-dasharray: none; stroke-linecap: butt; stroke-dashoffset: 0; stroke-linejoin: miter; stroke-miterlimit: 4; is-custom-font: none; font-file-url: none; fill: rgb(230,230,230); fill-rule: nonzero; opacity: 1;" transform=" translate(-462.2317, -355.1828)" d="M 524.86176 287.99532 l -37.118 -22.48858 s -1.02884 -13.9648 -11.60471 -14.6219 c -5.30952 -0.32989 -13.27738 -0.83427 -25.23451 -1.6052 c -2.527 -0.16293 -4.23227 13.66223 -7.12824 13.47462 l -39.18082 10.39338 l 5.93909 100.96426 s -8.9086 40.08878 -5.93909 47.5126 s -7.42383 10.39338 -4.45432 11.87815 s 0 11.87814 0 11.87814 s 57.906 29.69537 121.751 7.42383 l -5.93909 -19.302 a 15.58023 15.58023 0 0 0 -2.96954 -14.84769 s 5.93909 -8.9086 -1.48477 -16.33246 c 0 0 2.96954 -13.36291 -4.45432 -19.302 l -1.48477 -20.78677 l 4.45432 -10.39338 Z" stroke-linecap="round"/>
</g>
		<g transform="matrix(1 0 0 1 -131.5962 -249.5163)">
<path style="stroke: none; stroke-width: 1; stroke-dasharray: none; stroke-linecap: butt; stroke-dashoffset: 0; stroke-linejoin: miter; stroke-miterlimit: 4; is-custom-font: none; font-file-url: none; fill: rgb(47,46,65); fill-rule: nonzero; opacity: 1;" transform=" translate(-468.4037, -200.4837)" d="M 440.9299 229.06116 l -0.87158 -2.02441 c -0.1123 -0.26172 -11.13916 -26.32911 -1.36523 -42.40821 c 4.52441 -7.44384 12.75146 -11.64648 24.45166 -12.49023 c 18.30713 -1.32373 30.83691 3.019 37.251 12.89844 a 11.07543 11.07543 0 0 1 -9.335 17.061 h -0.24609 l -3.36377 -4.36767 l -0.1958 0.4248 c -1.21778 2.63477 -4.01465 4.07715 -7.29053 3.76123 c -0.55713 -0.04 -1.05078 0.44092 -1.44726 1.47022 a 2.61528 2.61528 0 0 1 -1.95752 1.814 c -2.42041 0.47119 -5.87061 -2.57764 -7.415 -4.09717 a 2.47811 2.47811 0 0 1 -1.15528 1.70117 c -1.62744 0.939 -4.16015 -0.28759 -4.8872 -0.67822 c -5.79151 1.23047 -9.54053 0.90137 -11.14649 -0.97705 c -1.08887 7.70361 -3.42578 21.56982 -6.228 22.33838 a 1.40089 1.40089 0 0 1 -1.52929 -0.66846 c -0.67481 -0.876 -1.27783 -1.3125 -1.6543 -1.18994 c -0.91162 0.29 -1.44971 3.292 -1.52685 5.22949 Z" stroke-linecap="round"/>
</g>
		<g transform="matrix(1 0 0 1 -77.3655 -125.3463)">
<path style="stroke: none; stroke-width: 1; stroke-dasharray: none; stroke-linecap: butt; stroke-dashoffset: 0; stroke-linejoin: miter; stroke-miterlimit: 4; is-custom-font: none; font-file-url: none; fill: rgb(230,230,230); fill-rule: nonzero; opacity: 1;" transform=" translate(-522.6345, -324.6538)" d="M 508.5293 289.48013 l 14.81131 -2.40638 a 72.31352 72.31352 0 0 1 20.82315 38.04084 c 4.45431 23.75628 5.939 28.2106 5.939 28.2106 l -35.63443 8.90857 l -19.302 -37.11924 Z" stroke-linecap="round"/>
</g>
		<g transform="matrix(0.0786 -0.9969 0.9969 0.0786 -44.9777 -62.3903)">
<rect style="stroke: none; stroke-width: 1; stroke-dasharray: none; stroke-linecap: butt; stroke-dashoffset: 0; stroke-linejoin: miter; stroke-miterlimit: 4; is-custom-font: none; font-file-url: none; fill: rgb(255,255,255); fill-rule: nonzero; opacity: 1;" x="-58.19725" y="-117.1553" rx="0" ry="0" width="116.3945" height="234.3106"/>
</g>
		<g transform="matrix(1 0 0 1 -135.5155 -116.0407)">
<path style="stroke: none; stroke-width: 1; stroke-dasharray: none; stroke-linecap: butt; stroke-dashoffset: 0; stroke-linejoin: miter; stroke-miterlimit: 4; is-custom-font: none; font-file-url: none; fill: rgb(232,26,65); fill-rule: nonzero; opacity: 1;" transform=" translate(-464.4844, -333.9594)" d="M 467.762 329.3696 c -5.71637 -4.08217 -12.974 -4.37733 -15.74644 -4.31865 c 0.84581 2.64018 3.47435 9.41156 9.19058 13.49552 c 5.73028 4.09245 12.97891 4.37863 15.74716 4.32149 C 476.10786 340.22872 473.47911 333.45457 467.762 329.3696 Z" stroke-linecap="round"/>
</g>
		<g transform="matrix(1 0 0 1 -129.1067 -39.8358)">
<path style="stroke: none; stroke-width: 1; stroke-dasharray: none; stroke-linecap: butt; stroke-dashoffset: 0; stroke-linejoin: miter; stroke-miterlimit: 4; is-custom-font: none; font-file-url: none; fill: rgb(232,26,65); fill-rule: nonzero; opacity: 1;" transform=" translate(-470.8934, -410.1642)" d="M 490.31257 403.20446 l -37.507 -2.95868 a 8.4653 8.4653 0 1 0 -1.33141 16.87817 h 0 l 37.507 2.95868 a 8.4653 8.4653 0 0 0 1.33141 -16.87817 Z" stroke-linecap="round"/>
</g>
		<g transform="matrix(1 0 0 1 -43.4725 -60.9122)">
<path style="stroke: none; stroke-width: 1; stroke-dasharray: none; stroke-linecap: butt; stroke-dashoffset: 0; stroke-linejoin: miter; stroke-miterlimit: 4; is-custom-font: none; font-file-url: none; fill: rgb(232,26,65); fill-rule: nonzero; opacity: 1;" transform=" translate(-556.5275, -389.0878)" d="M 667.1829 327.52712 l -210.29 -16.59005 a 18.68264 18.68264 0 0 0 -20.0917 17.15915 L 428.71374 430.547 a 18.69345 18.69345 0 0 0 17.16161 20.1014 l 210.29 16.59006 a 18.68261 18.68261 0 0 0 20.0917 -17.15915 l 7.68556 -97.37532 l 0.15463 -1.98944 l 0.24481 -3.09575 A 18.68267 18.68267 0 0 0 667.1829 327.52712 Z m -6.20967 89.13782 l -1.33248 16.87858 a 11.31529 11.31529 0 0 1 -12.14159 10.36082 l -28.13346 -2.21676 A 11.31528 11.31528 0 0 1 609.00488 429.546 l 1.33252 -16.87865 A 11.31941 11.31941 0 0 1 622.479 402.30651 l 28.12371 2.21931 A 11.32876 11.32876 0 0 1 660.97323 416.66494 Z M 441.83967 407.8638 a 10.34611 10.34611 0 0 1 11.11422 -9.49093 l 37.50561 2.96061 a 10.34238 10.34238 0 1 1 -1.60873 20.6221 l -0.01934 0.00492 l -37.50561 -2.96061 A 10.334 10.334 0 0 1 441.83967 407.8638 Z m 8.02924 -83.48172 l -0.25639 -1.04919 l 1.0789 -0.09888 c 0.42182 -0.04533 10.39871 -0.941 18.16489 4.60653 c 7.76627 5.5476 10.14774 15.28086 10.25123 15.688 l 0.24673 1.05158 l -1.07643 0.10859 a 28.42311 28.42311 0 0 1 -4.589 -0.03035 a 27.13718 27.13718 0 0 1 -13.57847 -4.58588 C 452.34423 334.52489 449.96268 324.79159 449.86891 324.38208 Z" stroke-linecap="round"/>
</g>
		<g transform="matrix(1 0 0 1 23.0689 -19.3402)">
<path style="stroke: none; stroke-width: 1; stroke-dasharray: none; stroke-linecap: butt; stroke-dashoffset: 0; stroke-linejoin: miter; stroke-miterlimit: 4; is-custom-font: none; font-file-url: none; fill: rgb(232,26,65); fill-rule: nonzero; opacity: 1;" transform=" translate(-623.0689, -430.6599)" d="M 629.4225 427.85879 l -12.18974 -0.96157 a 3.29206 3.29206 0 0 0 -0.51776 6.56372 l 12.18973 0.96157 a 3.29206 3.29206 0 0 0 0.51777 -6.56372 Z" stroke-linecap="round"/>
</g>
		<g transform="matrix(1 0 0 1 45.5729 -17.5649)">
<path style="stroke: none; stroke-width: 1; stroke-dasharray: none; stroke-linecap: butt; stroke-dashoffset: 0; stroke-linejoin: miter; stroke-miterlimit: 4; is-custom-font: none; font-file-url: none; fill: rgb(232,26,65); fill-rule: nonzero; opacity: 1;" transform=" translate(-645.5729, -432.4351)" d="M 651.92674 429.634 l -12.18979 -0.96157 a 3.29206 3.29206 0 0 0 -0.51777 6.56371 l 12.1898 0.96157 a 3.29206 3.29206 0 0 0 0.51776 -6.56371 Z" stroke-linecap="round"/>
</g>
		<g transform="matrix(1 0 0 1 23.7356 -27.7791)">
<path style="stroke: none; stroke-width: 1; stroke-dasharray: none; stroke-linecap: butt; stroke-dashoffset: 0; stroke-linejoin: miter; stroke-miterlimit: 4; is-custom-font: none; font-file-url: none; fill: rgb(232,26,65); fill-rule: nonzero; opacity: 1;" transform=" translate(-623.7356, -422.2209)" d="M 630.0882 419.4197 l -12.18973 -0.96156 a 3.29206 3.29206 0 0 0 -0.51777 6.56371 l 12.18973 0.96157 a 3.29206 3.29206 0 0 0 0.51777 -6.56372 Z" stroke-linecap="round"/>
</g>
		<g transform="matrix(1 0 0 1 46.2388 -26.0041)">
<path style="stroke: none; stroke-width: 1; stroke-dasharray: none; stroke-linecap: butt; stroke-dashoffset: 0; stroke-linejoin: miter; stroke-miterlimit: 4; is-custom-font: none; font-file-url: none; fill: rgb(232,26,65); fill-rule: nonzero; opacity: 1;" transform=" translate(-646.2388, -423.996)" d="M 652.59245 421.19491 l -12.1898 -0.96157 a 3.29206 3.29206 0 0 0 -0.51776 6.56372 l 12.18979 0.96157 a 3.29206 3.29206 0 0 0 0.51777 -6.56372 Z" stroke-linecap="round"/>
</g>
		<g transform="matrix(1 0 0 1 24.399 -36.2184)">
<path style="stroke: none; stroke-width: 1; stroke-dasharray: none; stroke-linecap: butt; stroke-dashoffset: 0; stroke-linejoin: miter; stroke-miterlimit: 4; is-custom-font: none; font-file-url: none; fill: rgb(232,26,65); fill-rule: nonzero; opacity: 1;" transform=" translate(-624.399, -413.7816)" d="M 630.7539 410.98062 l -12.18973 -0.96157 a 3.29206 3.29206 0 0 0 -0.51777 6.56372 l 12.18973 0.96156 a 3.29206 3.29206 0 0 0 0.51777 -6.56371 Z" stroke-linecap="round"/>
</g>
		<g transform="matrix(1 0 0 1 46.9044 -34.4431)">
<path style="stroke: none; stroke-width: 1; stroke-dasharray: none; stroke-linecap: butt; stroke-dashoffset: 0; stroke-linejoin: miter; stroke-miterlimit: 4; is-custom-font: none; font-file-url: none; fill: rgb(232,26,65); fill-rule: nonzero; opacity: 1;" transform=" translate(-646.9044, -415.5569)" d="M 653.25815 412.75583 l -12.18979 -0.96157 a 3.29206 3.29206 0 0 0 -0.51777 6.56371 l 12.18979 0.96157 a 3.29206 3.29206 0 0 0 0.51777 -6.56371 Z" stroke-linecap="round"/>
</g>
		<g transform="matrix(0.0783 -0.9969 0.9969 0.0783 -42.9766 -78.8847)">
<rect style="stroke: none; stroke-width: 1; stroke-dasharray: none; stroke-linecap: butt; stroke-dashoffset: 0; stroke-linejoin: miter; stroke-miterlimit: 4; is-custom-font: none; font-file-url: none; fill: rgb(255,255,255); fill-rule: nonzero; opacity: 1;" x="-1.00035" y="-123.80655" rx="0" ry="0" width="2.0007" height="247.6131"/>
</g>
		<g transform="matrix(1 0 0 1 33.9577 -102.2238)">
<polygon style="stroke: none; stroke-width: 1; stroke-dasharray: none; stroke-linecap: butt; stroke-dashoffset: 0; stroke-linejoin: miter; stroke-miterlimit: 4; is-custom-font: none; font-file-url: none; fill: rgb(63,61,86); fill-rule: nonzero; opacity: 1;" points="50.1395,2.938 49.9845,4.928 41.3935,4.254 -50.1395,-2.936 -49.9745,-4.928 41.5485,2.264 50.1395,2.938 "/>
</g>
		<g transform="matrix(1 0 0 1 -191.297 -104.0987)">
<path style="stroke: none; stroke-width: 1; stroke-dasharray: none; stroke-linecap: butt; stroke-dashoffset: 0; stroke-linejoin: miter; stroke-miterlimit: 4; is-custom-font: none; font-file-url: none; fill: rgb(160,97,106); fill-rule: nonzero; opacity: 1;" transform=" translate(-408.7029, -345.9013)" d="M 382.324 329.56887 s -13.36292 56.4212 2.96954 56.4212 S 440.23 322.145 440.23 322.145 L 426.867 305.81255 l -23.985 33.29993 l -1.2561 -16.96747 Z" stroke-linecap="round"/>
</g>
		<g transform="matrix(1 0 0 1 -163.3308 -138.4022)">
<circle style="stroke: none; stroke-width: 1; stroke-dasharray: none; stroke-linecap: butt; stroke-dashoffset: 0; stroke-linejoin: miter; stroke-miterlimit: 4; is-custom-font: none; font-file-url: none; fill: rgb(160,97,106); fill-rule: nonzero; opacity: 1;" cx="0" cy="0" r="13"/>
</g>
		<g transform="matrix(1 0 0 1 -203.1481 -143.8162)">
<path style="stroke: none; stroke-width: 1; stroke-dasharray: none; stroke-linecap: butt; stroke-dashoffset: 0; stroke-linejoin: miter; stroke-miterlimit: 4; is-custom-font: none; font-file-url: none; fill: rgb(230,230,230); fill-rule: nonzero; opacity: 1;" transform=" translate(-396.8519, -306.1838)" d="M 415.41156 282.05627 l -8.90863 -8.9086 s -17.81723 10.39337 -19.302 20.78677 s -8.9086 43.05829 -8.9086 43.05829 l 27.46823 2.22714 l 8.9086 -13.36291 Z" stroke-linecap="round"/>
</g>
</g>
</g>
</svg>