<svg xmlns="http://www.w3.org/2000/svg" xmlns:xlink="http://www.w3.org/1999/xlink" version="1.1" width="1000" height="1000" viewBox="0 0 1000 1000" xml:space="preserve">
<desc>Created with Fabric.js 3.5.0</desc>
<defs>
</defs>
<rect x="0" y="0" width="100%" height="100%" fill="#ffffff"/>
<g transform="matrix(0.7441 0 0 0.7441 499.9783 499.99)" id="869829">
<g style="" vector-effect="non-scaling-stroke">
		<g transform="matrix(1 0 0 1 -248.9162 169.1606)">
<path style="stroke: none; stroke-width: 1; stroke-dasharray: none; stroke-linecap: butt; stroke-dashoffset: 0; stroke-linejoin: miter; stroke-miterlimit: 4; is-custom-font: none; font-file-url: none; fill: rgb(240,240,240); fill-rule: nonzero; opacity: 1;" transform=" translate(-351.0838, -619.1606)" d="M 329.153 642.83294 c -22.523 -14.678 -38.89925 -41.06206 -35.54763 -67.73564 a 123.86333 123.86333 0 0 0 76.43469 37.27763 c 11.2188 1.12255 23.81371 1.203 31.78082 9.181 c 4.95743 4.964 7.06374 12.21938 7.17209 19.23382 c 0.10818 7.01478 -1.57724 13.919 -3.25174 20.7319 l 0.41151 1.70229 C 379.28745 662.23116 351.676 657.51093 329.153 642.83294 Z" stroke-linecap="round"/>
</g>
		<g transform="matrix(1 0 0 1 -250.7319 168.9688)">
<path style="stroke: none; stroke-width: 1; stroke-dasharray: none; stroke-linecap: butt; stroke-dashoffset: 0; stroke-linejoin: miter; stroke-miterlimit: 4; is-custom-font: none; font-file-url: none; fill: rgb(255,255,255); fill-rule: nonzero; opacity: 1;" transform=" translate(-349.2681, -618.9689)" d="M 294.16944 575.09153 a 105.8698 105.8698 0 0 0 42.01323 49.7772 a 45.59136 45.59136 0 0 0 13.05747 5.79236 a 26.14868 26.14868 0 0 0 13.75175 -0.52792 c 4.17968 -1.22258 8.31345 -2.95716 12.71753 -3.14244 a 16.01086 16.01086 0 0 1 12.09044 5.02735 c 3.96164 3.99276 6.25234 9.17088 8.31649 14.3125 c 2.29184 5.70878 4.5819 11.67473 9.24952 15.903 c 0.56555 0.51231 -0.26246 1.3599 -0.82716 0.84835 c -8.12086 -7.35651 -9.01471 -19.15919 -15.39806 -27.6937 c -2.9786 -3.98236 -7.17537 -7.09121 -12.306 -7.22264 c -4.48656 -0.11493 -8.75087 1.67014 -12.97218 2.9446 a 27.90252 27.90252 0 0 1 -13.427 1.01719 a 42.148 42.148 0 0 1 -13.232 -5.269 a 102.71281 102.71281 0 0 1 -24.765 -20.42666 A 107.7473 107.7473 0 0 1 293.027 575.40658 c -0.28775 -0.704 0.85653 -1.01448 1.14241 -0.315 Z" stroke-linecap="round"/>
</g>
		<g transform="matrix(1 0 0 1 -280.3234 173.7986)">
<path style="stroke: none; stroke-width: 1; stroke-dasharray: none; stroke-linecap: butt; stroke-dashoffset: 0; stroke-linejoin: miter; stroke-miterlimit: 4; is-custom-font: none; font-file-url: none; fill: rgb(255,255,255); fill-rule: nonzero; opacity: 1;" transform=" translate(-319.6766, -623.7986)" d="M 329.878 621.43847 a 15.88382 15.88382 0 0 1 -20.25535 3.572 c -0.65656 -0.38743 -0.08535 -1.42589 0.57208 -1.03794 a 14.70808 14.70808 0 0 0 18.83491 -3.36126 c 0.4837 -0.58934 1.32929 0.24119 0.84836 0.82716 Z" stroke-linecap="round"/>
</g>
		<g transform="matrix(1 0 0 1 -243.473 170.8006)">
<path style="stroke: none; stroke-width: 1; stroke-dasharray: none; stroke-linecap: butt; stroke-dashoffset: 0; stroke-linejoin: miter; stroke-miterlimit: 4; is-custom-font: none; font-file-url: none; fill: rgb(255,255,255); fill-rule: nonzero; opacity: 1;" transform=" translate(-356.527, -620.8006)" d="M 360.95427 631.03218 a 30.61481 30.61481 0 0 0 -9.85329 -20.01752 c -0.56372 -0.51431 0.26412 -1.362 0.82716 -0.84836 a 31.844 31.844 0 0 1 10.2109 20.85089 c 0.06223 0.76138 -1.12287 0.77223 -1.18477 0.015 Z" stroke-linecap="round"/>
</g>
		<g transform="matrix(1 0 0 1 -292.062 143.0641)">
<path style="stroke: none; stroke-width: 1; stroke-dasharray: none; stroke-linecap: butt; stroke-dashoffset: 0; stroke-linejoin: miter; stroke-miterlimit: 4; is-custom-font: none; font-file-url: none; fill: rgb(255,255,255); fill-rule: nonzero; opacity: 1;" transform=" translate(-307.938, -593.0641)" d="M 305.73685 596.77673 a 8.991 8.991 0 0 0 3.34676 -7.84756 c -0.07185 -0.76022 1.11338 -0.77026 1.18477 -0.015 a 10.07518 10.07518 0 0 1 -3.68318 8.68971 a 0.61233 0.61233 0 0 1 -0.83775 0.0106 a 0.59543 0.59543 0 0 1 -0.0106 -0.83776 Z" stroke-linecap="round"/>
</g>
		<g transform="matrix(1 0 0 1 -209.796 145.3455)">
<path style="stroke: none; stroke-width: 1; stroke-dasharray: none; stroke-linecap: butt; stroke-dashoffset: 0; stroke-linejoin: miter; stroke-miterlimit: 4; is-custom-font: none; font-file-url: none; fill: rgb(240,240,240); fill-rule: nonzero; opacity: 1;" transform=" translate(-390.204, -595.3455)" d="M 370.43292 526.28515 c 0.05836 0.47341 0.11673 0.94682 0.18388 1.42507 a 118.40619 118.40619 0 0 0 3.986 18.78915 c 0.13435 0.47733 0.27769 0.95906 0.42547 1.43154 a 124.82721 124.82721 0 0 0 21.46806 40.63524 a 121.2228 121.2228 0 0 0 12.52975 13.5 c 6.23281 5.76649 13.44959 11.52292 17.30008 18.79753 a 20.798 20.798 0 0 1 1.08726 2.33295 l -19.21583 39.39325 c -0.0886 0.06761 -0.16847 0.14 -0.25728 0.20807 l -0.69531 1.60793 c -0.24779 -0.1991 -0.50051 -0.41093 -0.7483 -0.61 c -0.14422 -0.1149 -0.28416 -0.23858 -0.42838 -0.35347 c -0.09479 -0.07938 -0.18942 -0.15923 -0.27949 -0.22544 c -0.03165 -0.0263 -0.06309 -0.053 -0.0858 -0.075 c -0.09007 -0.06621 -0.16671 -0.13728 -0.24779 -0.1991 q -2.12385 -1.77024 -4.23021 -3.5765 c -0.009 -0.00439 -0.009 -0.00439 -0.01371 -0.01756 c -10.67621 -9.2025 -20.67794 -19.37715 -28.8174 -30.74642 c -0.24477 -0.34214 -0.49876 -0.68823 -0.73475 -1.04837 a 115.67336 115.67336 0 0 1 -9.60945 -16.24781 a 102.26243 102.26243 0 0 1 -4.01577 -9.53594 a 85.03679 85.03679 0 0 1 -4.997 -26.114 c -0.5678 -17.76774 4.55317 -35.51929 16.47547 -48.39615 C 369.81759 526.93084 370.11869 526.61 370.43292 526.28515 Z" stroke-linecap="round"/>
</g>
		<g transform="matrix(1 0 0 1 -211.0848 144.8031)">
<path style="stroke: none; stroke-width: 1; stroke-dasharray: none; stroke-linecap: butt; stroke-dashoffset: 0; stroke-linejoin: miter; stroke-miterlimit: 4; is-custom-font: none; font-file-url: none; fill: rgb(255,255,255); fill-rule: nonzero; opacity: 1;" transform=" translate(-388.9152, -594.8031)" d="M 370.8897 526.6176 a 105.86971 105.86971 0 0 0 3.5759 65.03916 a 45.59123 45.59123 0 0 0 6.93826 12.48638 a 26.14854 26.14854 0 0 0 11.29785 7.858 c 4.07331 1.54029 8.41823 2.64414 12.04619 5.14777 a 16.01082 16.01082 0 0 1 6.62673 11.29334 c 0.75923 5.57317 -0.52935 11.08677 -1.97686 16.43482 c -1.60717 5.938 -3.37061 12.08024 -2.18949 18.26653 c 0.1431 0.74956 -1.02832 0.92778 -1.17121 0.17936 c -2.05493 -10.76309 4.33741 -20.725 4.379 -31.38257 c 0.01942 -4.973 -1.45972 -9.982 -5.47715 -13.176 c -3.51307 -2.793 -7.99263 -3.93512 -12.13042 -5.459 a 27.90252 27.90252 0 0 1 -11.33314 -7.27183 A 42.14812 42.14812 0 0 1 374.08266 593.86 a 102.71241 102.71241 0 0 1 -7.47521 -31.21979 a 107.747 107.747 0 0 1 3.18042 -36.45885 c 0.19411 -0.73538 1.29468 -0.29432 1.10183 0.43626 Z" stroke-linecap="round"/>
</g>
		<g transform="matrix(1 0 0 1 -237.4532 130.2509)">
<path style="stroke: none; stroke-width: 1; stroke-dasharray: none; stroke-linecap: butt; stroke-dashoffset: 0; stroke-linejoin: miter; stroke-miterlimit: 4; is-custom-font: none; font-file-url: none; fill: rgb(255,255,255); fill-rule: nonzero; opacity: 1;" transform=" translate(-362.5468, -580.2509)" d="M 371.4969 585.122 a 15.88383 15.88383 0 0 1 -18.32338 -9.343 c -0.291 -0.70464 0.79034 -1.18989 1.08169 -0.48431 a 14.70807 14.70807 0 0 0 17.06233 8.65614 c 0.741 -0.17934 0.91615 0.9929 0.17936 1.17121 Z" stroke-linecap="round"/>
</g>
		<g transform="matrix(1 0 0 1 -206.5737 150.6831)">
<path style="stroke: none; stroke-width: 1; stroke-dasharray: none; stroke-linecap: butt; stroke-dashoffset: 0; stroke-linejoin: miter; stroke-miterlimit: 4; is-custom-font: none; font-file-url: none; fill: rgb(255,255,255); fill-rule: nonzero; opacity: 1;" transform=" translate(-393.4263, -600.6831)" d="M 390.53351 611.49215 a 30.61477 30.61477 0 0 0 4.18463 -21.91524 c -0.14045 -0.75 1.03093 -0.92849 1.17121 -0.17936 a 31.844 31.844 0 0 1 -4.40084 22.79594 c -0.40871 0.64539 -1.36149 -0.05946 -0.955 -0.70134 Z" stroke-linecap="round"/>
</g>
		<g transform="matrix(1 0 0 1 -228.958 99.2296)">
<path style="stroke: none; stroke-width: 1; stroke-dasharray: none; stroke-linecap: butt; stroke-dashoffset: 0; stroke-linejoin: miter; stroke-miterlimit: 4; is-custom-font: none; font-file-url: none; fill: rgb(255,255,255); fill-rule: nonzero; opacity: 1;" transform=" translate(-371.042, -549.2296)" d="M 367.06964 550.89639 a 8.991 8.991 0 0 0 7.397 -4.25086 c 0.40033 -0.65025 1.35272 0.05533 0.955 0.70134 a 10.07517 10.07517 0 0 1 -8.17261 4.72073 a 0.61235 0.61235 0 0 1 -0.67529 -0.49593 a 0.59543 0.59543 0 0 1 0.49593 -0.67528 Z" stroke-linecap="round"/>
</g>
		<g transform="matrix(1 0 0 1 394.5698 169.1606)">
<path style="stroke: none; stroke-width: 1; stroke-dasharray: none; stroke-linecap: butt; stroke-dashoffset: 0; stroke-linejoin: miter; stroke-miterlimit: 4; is-custom-font: none; font-file-url: none; fill: rgb(240,240,240); fill-rule: nonzero; opacity: 1;" transform=" translate(-994.5698, -619.1606)" d="M 1016.50054 642.83294 c 22.523 -14.678 38.89925 -41.06206 35.54763 -67.73564 a 123.8633 123.8633 0 0 1 -76.43468 37.27763 c -11.21881 1.12255 -23.81372 1.203 -31.78083 9.181 c -4.95742 4.964 -7.06373 12.21938 -7.17208 19.23382 c -0.10818 7.01478 1.57723 13.919 3.25173 20.7319 l -0.41151 1.70229 C 966.36609 662.23116 993.97752 657.51093 1016.50054 642.83294 Z" stroke-linecap="round"/>
</g>
		<g transform="matrix(1 0 0 1 396.3854 168.9688)">
<path style="stroke: none; stroke-width: 1; stroke-dasharray: none; stroke-linecap: butt; stroke-dashoffset: 0; stroke-linejoin: miter; stroke-miterlimit: 4; is-custom-font: none; font-file-url: none; fill: rgb(255,255,255); fill-rule: nonzero; opacity: 1;" transform=" translate(-996.3854, -618.9688)" d="M 1051.4841 575.09153 a 105.86975 105.86975 0 0 1 -42.01323 49.7772 a 45.59136 45.59136 0 0 1 -13.05747 5.79236 a 26.14869 26.14869 0 0 1 -13.75175 -0.52792 c -4.17967 -1.22258 -8.31345 -2.95716 -12.71753 -3.14244 a 16.01088 16.01088 0 0 0 -12.09044 5.02735 c -3.96163 3.99276 -6.25234 9.17088 -8.31649 14.3125 c -2.29184 5.70878 -4.58189 11.67473 -9.24952 15.903 c -0.56554 0.51231 0.26247 1.3599 0.82716 0.84835 c 8.12087 -7.35651 9.01471 -19.15919 15.39807 -27.6937 c 2.97859 -3.98236 7.17536 -7.09121 12.306 -7.22264 c 4.48656 -0.11493 8.75087 1.67014 12.97219 2.9446 a 27.90248 27.90248 0 0 0 13.427 1.01719 a 42.148 42.148 0 0 0 13.232 -5.269 a 102.713 102.713 0 0 0 24.765 -20.42666 a 107.7473 107.7473 0 0 0 19.41136 -31.02519 c 0.28776 -0.704 -0.85653 -1.01448 -1.14241 -0.315 Z" stroke-linecap="round"/>
</g>
		<g transform="matrix(1 0 0 1 425.977 173.7986)">
<path style="stroke: none; stroke-width: 1; stroke-dasharray: none; stroke-linecap: butt; stroke-dashoffset: 0; stroke-linejoin: miter; stroke-miterlimit: 4; is-custom-font: none; font-file-url: none; fill: rgb(255,255,255); fill-rule: nonzero; opacity: 1;" transform=" translate(-1025.977, -623.7986)" d="M 1015.77557 621.43847 a 15.88383 15.88383 0 0 0 20.25536 3.572 c 0.65655 -0.38743 0.08534 -1.42589 -0.57209 -1.03794 a 14.70808 14.70808 0 0 1 -18.83491 -3.36126 c -0.48369 -0.58934 -1.32928 0.24119 -0.84836 0.82716 Z" stroke-linecap="round"/>
</g>
		<g transform="matrix(1 0 0 1 389.1265 170.8006)">
<path style="stroke: none; stroke-width: 1; stroke-dasharray: none; stroke-linecap: butt; stroke-dashoffset: 0; stroke-linejoin: miter; stroke-miterlimit: 4; is-custom-font: none; font-file-url: none; fill: rgb(255,255,255); fill-rule: nonzero; opacity: 1;" transform=" translate(-989.1265, -620.8006)" d="M 984.69927 631.03218 a 30.61478 30.61478 0 0 1 9.8533 -20.01752 c 0.56371 -0.51431 -0.26413 -1.362 -0.82716 -0.84836 a 31.844 31.844 0 0 0 -10.21091 20.85089 c -0.06223 0.76138 1.12288 0.77223 1.18477 0.015 Z" stroke-linecap="round"/>
</g>
		<g transform="matrix(1 0 0 1 437.7156 143.0641)">
<path style="stroke: none; stroke-width: 1; stroke-dasharray: none; stroke-linecap: butt; stroke-dashoffset: 0; stroke-linejoin: miter; stroke-miterlimit: 4; is-custom-font: none; font-file-url: none; fill: rgb(255,255,255); fill-rule: nonzero; opacity: 1;" transform=" translate(-1037.7155, -593.0641)" d="M 1039.9167 596.77673 a 8.991 8.991 0 0 1 -3.34677 -7.84756 c 0.07186 -0.76022 -1.11338 -0.77026 -1.18476 -0.015 a 10.07515 10.07515 0 0 0 3.68317 8.68971 a 0.61235 0.61235 0 0 0 0.83776 0.0106 a 0.59543 0.59543 0 0 0 0.0106 -0.83776 Z" stroke-linecap="round"/>
</g>
		<g transform="matrix(1 0 0 1 355.4495 145.3455)">
<path style="stroke: none; stroke-width: 1; stroke-dasharray: none; stroke-linecap: butt; stroke-dashoffset: 0; stroke-linejoin: miter; stroke-miterlimit: 4; is-custom-font: none; font-file-url: none; fill: rgb(240,240,240); fill-rule: nonzero; opacity: 1;" transform=" translate(-955.4496, -595.3455)" d="M 975.22063 526.28515 c -0.05837 0.47341 -0.11674 0.94682 -0.18388 1.42507 a 118.40733 118.40733 0 0 1 -3.986 18.78915 c -0.13434 0.47733 -0.27768 0.95906 -0.42547 1.43154 a 124.82719 124.82719 0 0 1 -21.46805 40.63524 a 121.22469 121.22469 0 0 1 -12.52975 13.5 c -6.23282 5.76649 -13.44959 11.52292 -17.30009 18.79753 a 20.79612 20.79612 0 0 0 -1.08725 2.33295 L 937.456 662.58984 c 0.0886 0.06761 0.16847 0.14 0.25728 0.20807 l 0.69532 1.60793 c 0.24779 -0.1991 0.50051 -0.41093 0.7483 -0.61 c 0.14422 -0.1149 0.28415 -0.23858 0.42837 -0.35347 c 0.09479 -0.07938 0.18942 -0.15923 0.2795 -0.22544 c 0.03165 -0.0263 0.06308 -0.053 0.08579 -0.075 c 0.09008 -0.06621 0.16671 -0.13728 0.24779 -0.1991 q 2.12386 -1.77024 4.23022 -3.5765 c 0.009 -0.00439 0.009 -0.00439 0.01371 -0.01756 c 10.6762 -9.2025 20.67794 -19.37715 28.81739 -30.74642 c 0.24478 -0.34214 0.49876 -0.68823 0.73476 -1.04837 a 115.6733 115.6733 0 0 0 9.60944 -16.24781 a 102.25973 102.25973 0 0 0 4.01577 -9.53594 a 85.03649 85.03649 0 0 0 4.997 -26.114 c 0.5678 -17.76774 -4.55316 -35.51929 -16.47547 -48.39615 C 975.836 526.93084 975.53485 526.61 975.22063 526.28515 Z" stroke-linecap="round"/>
</g>
		<g transform="matrix(1 0 0 1 356.7384 144.8031)">
<path style="stroke: none; stroke-width: 1; stroke-dasharray: none; stroke-linecap: butt; stroke-dashoffset: 0; stroke-linejoin: miter; stroke-miterlimit: 4; is-custom-font: none; font-file-url: none; fill: rgb(255,255,255); fill-rule: nonzero; opacity: 1;" transform=" translate(-956.7383, -594.8031)" d="M 974.76384 526.6176 a 105.86971 105.86971 0 0 1 -3.5759 65.03916 a 45.59123 45.59123 0 0 1 -6.93826 12.48638 a 26.14857 26.14857 0 0 1 -11.29784 7.858 c -4.07332 1.54029 -8.41824 2.64414 -12.0462 5.14777 a 16.01082 16.01082 0 0 0 -6.62673 11.29334 c -0.75923 5.57317 0.52936 11.08677 1.97686 16.43482 c 1.60718 5.938 3.37061 12.08024 2.1895 18.26653 c -0.14311 0.74956 1.02831 0.92778 1.17121 0.17936 c 2.05493 -10.76309 -4.33742 -20.725 -4.379 -31.38257 c -0.01942 -4.973 1.45973 -9.982 5.47716 -13.176 c 3.51307 -2.793 7.99262 -3.93512 12.13041 -5.459 a 27.90245 27.90245 0 0 0 11.33314 -7.27183 A 42.1479 42.1479 0 0 0 971.57088 593.86 a 102.71241 102.71241 0 0 0 7.47521 -31.21979 a 107.74669 107.74669 0 0 0 -3.18042 -36.45885 c -0.19411 -0.73538 -1.29467 -0.29432 -1.10183 0.43626 Z" stroke-linecap="round"/>
</g>
		<g transform="matrix(1 0 0 1 383.1067 130.2509)">
<path style="stroke: none; stroke-width: 1; stroke-dasharray: none; stroke-linecap: butt; stroke-dashoffset: 0; stroke-linejoin: miter; stroke-miterlimit: 4; is-custom-font: none; font-file-url: none; fill: rgb(255,255,255); fill-rule: nonzero; opacity: 1;" transform=" translate(-983.1067, -580.2509)" d="M 974.15664 585.122 A 15.88383 15.88383 0 0 0 992.48 575.779 c 0.291 -0.70464 -0.79034 -1.18989 -1.08169 -0.48431 a 14.70807 14.70807 0 0 1 -17.06233 8.65614 c -0.741 -0.17934 -0.91615 0.9929 -0.17936 1.17121 Z" stroke-linecap="round"/>
</g>
		<g transform="matrix(1 0 0 1 352.2272 150.6831)">
<path style="stroke: none; stroke-width: 1; stroke-dasharray: none; stroke-linecap: butt; stroke-dashoffset: 0; stroke-linejoin: miter; stroke-miterlimit: 4; is-custom-font: none; font-file-url: none; fill: rgb(255,255,255); fill-rule: nonzero; opacity: 1;" transform=" translate(-952.2272, -600.6831)" d="M 955.12 611.49215 a 30.61482 30.61482 0 0 1 -4.18463 -21.91524 c 0.14045 -0.75 -1.03093 -0.92849 -1.17121 -0.17936 a 31.844 31.844 0 0 0 4.40084 22.79594 c 0.40872 0.64539 1.36149 -0.05946 0.955 -0.70134 Z" stroke-linecap="round"/>
</g>
		<g transform="matrix(1 0 0 1 374.6116 99.2296)">
<path style="stroke: none; stroke-width: 1; stroke-dasharray: none; stroke-linecap: butt; stroke-dashoffset: 0; stroke-linejoin: miter; stroke-miterlimit: 4; is-custom-font: none; font-file-url: none; fill: rgb(255,255,255); fill-rule: nonzero; opacity: 1;" transform=" translate(-974.6115, -549.2296)" d="M 978.58391 550.89639 a 8.991 8.991 0 0 1 -7.397 -4.25086 c -0.40033 -0.65025 -1.35272 0.05533 -0.955 0.70134 a 10.07519 10.07519 0 0 0 8.17262 4.72073 a 0.61235 0.61235 0 0 0 0.67528 -0.49593 a 0.59542 0.59542 0 0 0 -0.49592 -0.67528 Z" stroke-linecap="round"/>
</g>
		<g transform="matrix(1 0 0 1 -228.0808 48.2429)">
<path style="stroke: none; stroke-width: 1; stroke-dasharray: none; stroke-linecap: butt; stroke-dashoffset: 0; stroke-linejoin: miter; stroke-miterlimit: 4; is-custom-font: none; font-file-url: none; fill: rgb(255,182,182); fill-rule: nonzero; opacity: 1;" transform=" translate(-371.9192, -498.2428)" d="M 373.514 513.394 a 6.80323 6.80323 0 0 1 -1.614 -10.30633 l -11.9808 -20.999 l 12.53719 0.80994 l 9.45509 19.81686 A 6.8401 6.8401 0 0 1 373.514 513.394 Z" stroke-linecap="round"/>
</g>
		<g transform="matrix(1 0 0 1 -312.5947 190.5504)">
<polygon style="stroke: none; stroke-width: 1; stroke-dasharray: none; stroke-linecap: butt; stroke-dashoffset: 0; stroke-linejoin: miter; stroke-miterlimit: 4; is-custom-font: none; font-file-url: none; fill: rgb(255,182,182); fill-rule: nonzero; opacity: 1;" points="-6.12,15.9965 2.175,15.9965 6.121,-15.9965 -6.121,-15.9955 -6.12,15.9965 "/>
</g>
		<g transform="matrix(1 0 0 1 -307.4575 209.213)">
<path style="stroke: none; stroke-width: 1; stroke-dasharray: none; stroke-linecap: butt; stroke-dashoffset: 0; stroke-linejoin: miter; stroke-miterlimit: 4; is-custom-font: none; font-file-url: none; fill: rgb(47,46,65); fill-rule: nonzero; opacity: 1;" transform=" translate(-292.5425, -659.2131)" d="M 279.17 653.83931 l 16.33465 -0.00066 h 0.00066 A 10.41026 10.41026 0 0 1 305.915 664.2482 v 0.33827 l -26.74453 0.001 Z" stroke-linecap="round"/>
</g>
		<g transform="matrix(1 0 0 1 -255.7647 190.5504)">
<polygon style="stroke: none; stroke-width: 1; stroke-dasharray: none; stroke-linecap: butt; stroke-dashoffset: 0; stroke-linejoin: miter; stroke-miterlimit: 4; is-custom-font: none; font-file-url: none; fill: rgb(255,182,182); fill-rule: nonzero; opacity: 1;" points="-6.119,15.9965 2.175,15.9965 6.121,-15.9965 -6.121,-15.9955 -6.119,15.9965 "/>
</g>
		<g transform="matrix(1 0 0 1 -250.6273 209.213)">
<path style="stroke: none; stroke-width: 1; stroke-dasharray: none; stroke-linecap: butt; stroke-dashoffset: 0; stroke-linejoin: miter; stroke-miterlimit: 4; is-custom-font: none; font-file-url: none; fill: rgb(47,46,65); fill-rule: nonzero; opacity: 1;" transform=" translate(-349.3727, -659.2131)" d="M 336.00016 653.83931 l 16.33465 -0.00066 h 0.00066 a 10.41028 10.41028 0 0 1 10.40971 10.40955 v 0.33827 l -26.74453 0.001 Z" stroke-linecap="round"/>
</g>
		<g transform="matrix(1 0 0 1 -280.2977 115.3099)">
<path style="stroke: none; stroke-width: 1; stroke-dasharray: none; stroke-linecap: butt; stroke-dashoffset: 0; stroke-linejoin: miter; stroke-miterlimit: 4; is-custom-font: none; font-file-url: none; fill: rgb(47,46,65); fill-rule: nonzero; opacity: 1;" transform=" translate(-319.7023, -565.3099)" d="M 359.44421 482.991 s 2.28143 32.48881 -2.21187 48.85109 s -5.29565 115.3117 -5.29565 115.3117 H 336.87553 l -13.054 -134.69112 L 293.72716 647.62875 l -14.34584 -0.9864 l 7.8675 -159.27511 Z" stroke-linecap="round"/>
</g>
		<g transform="matrix(1 0 0 1 -279.7026 -22.3269)">
<path style="stroke: none; stroke-width: 1; stroke-dasharray: none; stroke-linecap: butt; stroke-dashoffset: 0; stroke-linejoin: miter; stroke-miterlimit: 4; is-custom-font: none; font-file-url: none; fill: rgb(63,61,86); fill-rule: nonzero; opacity: 1;" transform=" translate(-320.2973, -427.6731)" d="M 293.47263 373.47266 l 11.5139 -8.40205 l 19.29332 4.201 l 5.22257 12.40944 l 8.99914 4.46184 a 20.399 20.399 0 0 1 11.12709 15.35249 l 12.85643 88.78025 l -75.23626 -2.90841 l -9.10831 -104.55593 a 8.19691 8.19691 0 0 1 7.69034 -8.89447 Z" stroke-linecap="round"/>
</g>
		<g transform="matrix(1 0 0 1 -238.1302 -3.2426)">
<polygon style="stroke: none; stroke-width: 1; stroke-dasharray: none; stroke-linecap: butt; stroke-dashoffset: 0; stroke-linejoin: miter; stroke-miterlimit: 4; is-custom-font: none; font-file-url: none; fill: rgb(63,61,86); fill-rule: nonzero; opacity: 1;" points="-18.6075,-53.6795 -11.6585,-44.3125 18.6075,47.9995 4.4205,53.6795 -18.2965,10.6645 -18.6075,-53.6795 "/>
</g>
		<g transform="matrix(1 0 0 1 -281.9267 -106.1201)">
<circle style="stroke: none; stroke-width: 1; stroke-dasharray: none; stroke-linecap: butt; stroke-dashoffset: 0; stroke-linejoin: miter; stroke-miterlimit: 4; is-custom-font: none; font-file-url: none; fill: rgb(255,185,185); fill-rule: nonzero; opacity: 1;" cx="0" cy="0" r="16.80412"/>
</g>
		<g transform="matrix(1 0 0 1 -289.5227 -7.9201)">
<polygon style="stroke: none; stroke-width: 1; stroke-dasharray: none; stroke-linecap: butt; stroke-dashoffset: 0; stroke-linejoin: miter; stroke-miterlimit: 4; is-custom-font: none; font-file-url: none; fill: rgb(0,0,0); fill-rule: nonzero; opacity: 0.1;" points="-29.037,-29.064 -1.615,9.076 29.037,29.064 -29.037,-29.064 "/>
</g>
		<g transform="matrix(1 0 0 1 -280.3903 -110.0539)">
<path style="stroke: none; stroke-width: 1; stroke-dasharray: none; stroke-linecap: butt; stroke-dashoffset: 0; stroke-linejoin: miter; stroke-miterlimit: 4; is-custom-font: none; font-file-url: none; fill: rgb(47,46,65); fill-rule: nonzero; opacity: 1;" transform=" translate(-319.6098, -339.9461)" d="M 309.16784 356.028 c -1.16887 -2.33371 -2.37135 -4.87393 -1.92456 -7.44547 s 3.39783 -4.81222 5.67536 -3.53733 c 0.94491 -3.415 5.12808 -4.90953 8.64936 -4.5153 s 6.76352 2.09271 10.231 2.8219 s 7.67849 0.15074 9.5525 -2.8564 l -4.484 -0.07759 l 4.6694 -5.41592 l -5.4127 -0.40495 c 1.87479 -2.02343 1.37677 -5.46112 -0.43824 -7.53834 s -4.56922 -3.06007 -7.25675 -3.68158 a 40.4285 40.4285 0 0 0 -16.34248 -0.37566 A 21.24535 21.24535 0 0 0 304.826 325.528 a 14.44494 14.44494 0 0 0 -5.07583 5.264 a 17.37739 17.37739 0 0 0 -2.0624 7.91942 a 22.14507 22.14507 0 0 0 9.75728 18.83679" stroke-linecap="round"/>
</g>
		<g transform="matrix(1 0 0 1 74.0906 -0.9811)">
<path style="stroke: none; stroke-width: 1; stroke-dasharray: none; stroke-linecap: butt; stroke-dashoffset: 0; stroke-linejoin: miter; stroke-miterlimit: 4; is-custom-font: none; font-file-url: none; fill: rgb(228,228,228); fill-rule: nonzero; opacity: 1;" transform=" translate(-674.0906, -449.0189)" d="M 934.835 665.01893 H 413.34668 a 20.27914 20.27914 0 0 1 -20.25635 -20.25586 V 253.27479 a 20.27913 20.27913 0 0 1 20.25635 -20.25586 H 934.835 a 20.279 20.279 0 0 1 20.25586 20.25586 V 644.76307 A 20.279 20.279 0 0 1 934.835 665.01893 Z" stroke-linecap="round"/>
</g>
		<g transform="matrix(1 0 0 1 163.3366 -52.2313)">
<path style="stroke: none; stroke-width: 1; stroke-dasharray: none; stroke-linecap: butt; stroke-dashoffset: 0; stroke-linejoin: miter; stroke-miterlimit: 4; is-custom-font: none; font-file-url: none; fill: rgb(255,255,255); fill-rule: nonzero; opacity: 1;" transform=" translate(-763.3366, -397.7687)" d="M 803.58673 412.76872 H 723.08648 a 15 15 0 0 1 0 -30 h 80.50025 a 15 15 0 0 1 0 30 Z" stroke-linecap="round"/>
</g>
		<g transform="matrix(1 0 0 1 123.5866 -1.7312)">
<path style="stroke: none; stroke-width: 1; stroke-dasharray: none; stroke-linecap: butt; stroke-dashoffset: 0; stroke-linejoin: miter; stroke-miterlimit: 4; is-custom-font: none; font-file-url: none; fill: rgb(255,255,255); fill-rule: nonzero; opacity: 1;" transform=" translate(-723.5866, -448.2688)" d="M 733.08659 453.76875 h -19 a 5.5 5.5 0 0 1 0 -11 h 19 a 5.5 5.5 0 0 1 0 11 Z" stroke-linecap="round"/>
</g>
		<g transform="matrix(1 0 0 1 202.5866 -1.7312)">
<path style="stroke: none; stroke-width: 1; stroke-dasharray: none; stroke-linecap: butt; stroke-dashoffset: 0; stroke-linejoin: miter; stroke-miterlimit: 4; is-custom-font: none; font-file-url: none; fill: rgb(255,255,255); fill-rule: nonzero; opacity: 1;" transform=" translate(-802.5866, -448.2688)" d="M 812.08659 453.76875 h -19 a 5.5 5.5 0 0 1 0 -11 h 19 a 5.5 5.5 0 0 1 0 11 Z" stroke-linecap="round"/>
</g>
		<g transform="matrix(1 0 0 1 162.5866 -1.7312)">
<path style="stroke: none; stroke-width: 1; stroke-dasharray: none; stroke-linecap: butt; stroke-dashoffset: 0; stroke-linejoin: miter; stroke-miterlimit: 4; is-custom-font: none; font-file-url: none; fill: rgb(255,255,255); fill-rule: nonzero; opacity: 1;" transform=" translate(-762.5866, -448.2688)" d="M 772.08659 453.76875 h -19 a 5.5 5.5 0 0 1 0 -11 h 19 a 5.5 5.5 0 0 1 0 11 Z" stroke-linecap="round"/>
</g>
		<g transform="matrix(1 0 0 1 123.5866 19.2688)">
<path style="stroke: none; stroke-width: 1; stroke-dasharray: none; stroke-linecap: butt; stroke-dashoffset: 0; stroke-linejoin: miter; stroke-miterlimit: 4; is-custom-font: none; font-file-url: none; fill: rgb(255,255,255); fill-rule: nonzero; opacity: 1;" transform=" translate(-723.5866, -469.2688)" d="M 733.08659 474.76875 h -19 a 5.5 5.5 0 0 1 0 -11 h 19 a 5.5 5.5 0 0 1 0 11 Z" stroke-linecap="round"/>
</g>
		<g transform="matrix(1 0 0 1 202.5866 19.2688)">
<path style="stroke: none; stroke-width: 1; stroke-dasharray: none; stroke-linecap: butt; stroke-dashoffset: 0; stroke-linejoin: miter; stroke-miterlimit: 4; is-custom-font: none; font-file-url: none; fill: rgb(255,255,255); fill-rule: nonzero; opacity: 1;" transform=" translate(-802.5866, -469.2688)" d="M 812.08659 474.76875 h -19 a 5.5 5.5 0 0 1 0 -11 h 19 a 5.5 5.5 0 0 1 0 11 Z" stroke-linecap="round"/>
</g>
		<g transform="matrix(1 0 0 1 162.5866 19.2688)">
<path style="stroke: none; stroke-width: 1; stroke-dasharray: none; stroke-linecap: butt; stroke-dashoffset: 0; stroke-linejoin: miter; stroke-miterlimit: 4; is-custom-font: none; font-file-url: none; fill: rgb(255,255,255); fill-rule: nonzero; opacity: 1;" transform=" translate(-762.5866, -469.2688)" d="M 772.08659 474.76875 h -19 a 5.5 5.5 0 0 1 0 -11 h 19 a 5.5 5.5 0 0 1 0 11 Z" stroke-linecap="round"/>
</g>
		<g transform="matrix(1 0 0 1 123.5866 40.2688)">
<path style="stroke: none; stroke-width: 1; stroke-dasharray: none; stroke-linecap: butt; stroke-dashoffset: 0; stroke-linejoin: miter; stroke-miterlimit: 4; is-custom-font: none; font-file-url: none; fill: rgb(255,255,255); fill-rule: nonzero; opacity: 1;" transform=" translate(-723.5866, -490.2688)" d="M 733.08659 495.76875 h -19 a 5.5 5.5 0 0 1 0 -11 h 19 a 5.5 5.5 0 0 1 0 11 Z" stroke-linecap="round"/>
</g>
		<g transform="matrix(1 0 0 1 202.5866 40.2688)">
<path style="stroke: none; stroke-width: 1; stroke-dasharray: none; stroke-linecap: butt; stroke-dashoffset: 0; stroke-linejoin: miter; stroke-miterlimit: 4; is-custom-font: none; font-file-url: none; fill: rgb(255,255,255); fill-rule: nonzero; opacity: 1;" transform=" translate(-802.5866, -490.2688)" d="M 812.08659 495.76875 h -19 a 5.5 5.5 0 0 1 0 -11 h 19 a 5.5 5.5 0 0 1 0 11 Z" stroke-linecap="round"/>
</g>
		<g transform="matrix(1 0 0 1 162.5866 40.2688)">
<path style="stroke: none; stroke-width: 1; stroke-dasharray: none; stroke-linecap: butt; stroke-dashoffset: 0; stroke-linejoin: miter; stroke-miterlimit: 4; is-custom-font: none; font-file-url: none; fill: rgb(255,255,255); fill-rule: nonzero; opacity: 1;" transform=" translate(-762.5866, -490.2688)" d="M 772.08659 495.76875 h -19 a 5.5 5.5 0 0 1 0 -11 h 19 a 5.5 5.5 0 0 1 0 11 Z" stroke-linecap="round"/>
</g>
		<g transform="matrix(1 0 0 1 123.5866 61.2687)">
<path style="stroke: none; stroke-width: 1; stroke-dasharray: none; stroke-linecap: butt; stroke-dashoffset: 0; stroke-linejoin: miter; stroke-miterlimit: 4; is-custom-font: none; font-file-url: none; fill: rgb(255,255,255); fill-rule: nonzero; opacity: 1;" transform=" translate(-723.5866, -511.2687)" d="M 733.08659 516.76875 h -19 a 5.5 5.5 0 0 1 0 -11 h 19 a 5.5 5.5 0 1 1 0 11 Z" stroke-linecap="round"/>
</g>
		<g transform="matrix(1 0 0 1 202.5866 61.2687)">
<path style="stroke: none; stroke-width: 1; stroke-dasharray: none; stroke-linecap: butt; stroke-dashoffset: 0; stroke-linejoin: miter; stroke-miterlimit: 4; is-custom-font: none; font-file-url: none; fill: rgb(255,255,255); fill-rule: nonzero; opacity: 1;" transform=" translate(-802.5866, -511.2687)" d="M 812.08659 516.76875 h -19 a 5.5 5.5 0 0 1 0 -11 h 19 a 5.5 5.5 0 1 1 0 11 Z" stroke-linecap="round"/>
</g>
		<g transform="matrix(1 0 0 1 162.5866 61.2687)">
<path style="stroke: none; stroke-width: 1; stroke-dasharray: none; stroke-linecap: butt; stroke-dashoffset: 0; stroke-linejoin: miter; stroke-miterlimit: 4; is-custom-font: none; font-file-url: none; fill: rgb(255,255,255); fill-rule: nonzero; opacity: 1;" transform=" translate(-762.5866, -511.2687)" d="M 772.08659 516.76875 h -19 a 5.5 5.5 0 0 1 0 -11 h 19 a 5.5 5.5 0 1 1 0 11 Z" stroke-linecap="round"/>
</g>
		<g transform="matrix(1 0 0 1 4.5866 -6.2312)">
<circle style="stroke: none; stroke-width: 1; stroke-dasharray: none; stroke-linecap: butt; stroke-dashoffset: 0; stroke-linejoin: miter; stroke-miterlimit: 4; is-custom-font: none; font-file-url: none; fill: rgb(202,202,202); fill-rule: nonzero; opacity: 1;" cx="0" cy="0" r="51"/>
</g>
		<g transform="matrix(1 0 0 1 4.5865 -6.2374)">
<path style="stroke: none; stroke-width: 1; stroke-dasharray: none; stroke-linecap: butt; stroke-dashoffset: 0; stroke-linejoin: miter; stroke-miterlimit: 4; is-custom-font: none; font-file-url: none; fill: rgb(255,255,255); fill-rule: nonzero; opacity: 1;" transform=" translate(-604.5865, -443.7626)" d="M 604.58661 506.26872 a 15.017 15.017 0 0 1 -15 -15 v -95 a 14.99994 14.99994 0 1 1 29.99987 0 v 95 A 15.017 15.017 0 0 1 604.58661 506.26872 Z" stroke-linecap="round"/>
</g>
		<g transform="matrix(1 0 0 1 130.8228 -45.6722)">
<path style="stroke: none; stroke-width: 1; stroke-dasharray: none; stroke-linecap: butt; stroke-dashoffset: 0; stroke-linejoin: miter; stroke-miterlimit: 4; is-custom-font: none; font-file-url: none; fill: rgb(228,228,228); fill-rule: nonzero; opacity: 1;" transform=" translate(-730.8228, -404.3278)" d="M 737.82281 406.3278 h -14 a 2 2 0 0 1 0 -4 h 14 a 2 2 0 1 1 0 4 Z" stroke-linecap="round"/>
</g>
		<g transform="matrix(1 0 0 1 152.8228 -45.1722)">
<path style="stroke: none; stroke-width: 1; stroke-dasharray: none; stroke-linecap: butt; stroke-dashoffset: 0; stroke-linejoin: miter; stroke-miterlimit: 4; is-custom-font: none; font-file-url: none; fill: rgb(228,228,228); fill-rule: nonzero; opacity: 1;" transform=" translate(-752.8228, -404.8278)" d="M 759.82281 406.8278 h -14 a 2 2 0 0 1 0 -4 h 14 a 2 2 0 1 1 0 4 Z" stroke-linecap="round"/>
</g>
		<g transform="matrix(1 0 0 1 174.8228 -44.6722)">
<path style="stroke: none; stroke-width: 1; stroke-dasharray: none; stroke-linecap: butt; stroke-dashoffset: 0; stroke-linejoin: miter; stroke-miterlimit: 4; is-custom-font: none; font-file-url: none; fill: rgb(228,228,228); fill-rule: nonzero; opacity: 1;" transform=" translate(-774.8228, -405.3278)" d="M 781.82281 407.3278 h -14 a 2 2 0 0 1 0 -4 h 14 a 2 2 0 1 1 0 4 Z" stroke-linecap="round"/>
</g>
		<g transform="matrix(1 0 0 1 196.8228 -44.1722)">
<path style="stroke: none; stroke-width: 1; stroke-dasharray: none; stroke-linecap: butt; stroke-dashoffset: 0; stroke-linejoin: miter; stroke-miterlimit: 4; is-custom-font: none; font-file-url: none; fill: rgb(228,228,228); fill-rule: nonzero; opacity: 1;" transform=" translate(-796.8228, -405.8278)" d="M 803.82281 407.8278 h -14 a 2 2 0 0 1 0 -4 h 14 a 2 2 0 1 1 0 4 Z" stroke-linecap="round"/>
</g>
		<g transform="matrix(1 0 0 1 -146.3832 -2.4222)">
<path style="stroke: none; stroke-width: 1; stroke-dasharray: none; stroke-linecap: butt; stroke-dashoffset: 0; stroke-linejoin: miter; stroke-miterlimit: 4; is-custom-font: none; font-file-url: none; fill: rgb(202,202,202); fill-rule: nonzero; opacity: 1;" transform=" translate(-453.6168, -447.5778)" d="M 459.58654 603.26779 a 18.69348 18.69348 0 0 0 5.56006 13.31 h -8.26077 a 18.55905 18.55905 0 0 1 -18.55906 -18.55906 V 297.13684 a 18.55905 18.55905 0 0 1 18.55906 -18.55905 h 12.021 a 18.74383 18.74383 0 0 0 -9.32031 16.2 Z" stroke-linecap="round"/>
</g>
		<g transform="matrix(1 0 0 1 0.0018 215.7904)">
<path style="stroke: none; stroke-width: 1; stroke-dasharray: none; stroke-linecap: butt; stroke-dashoffset: 0; stroke-linejoin: miter; stroke-miterlimit: 4; is-custom-font: none; font-file-url: none; fill: rgb(202,202,202); fill-rule: nonzero; opacity: 1;" transform=" translate(-600.0017, -665.7904)" d="M 1069.147 666.98107 H 130.853 a 1.19069 1.19069 0 0 1 0 -2.38137 h 938.294 a 1.19068 1.19068 0 0 1 0 2.38137 Z" stroke-linecap="round"/>
</g>
		<g transform="matrix(1 0 0 1 -198.8004 -53.9127)">
<path style="stroke: none; stroke-width: 1; stroke-dasharray: none; stroke-linecap: butt; stroke-dashoffset: 0; stroke-linejoin: miter; stroke-miterlimit: 4; is-custom-font: none; font-file-url: none; fill: rgb(255,255,255); fill-rule: nonzero; opacity: 1;" transform=" translate(-401.1996, -396.0873)" d="M 457.58654 366.49777 q -9.47975 -2.65494 -19.02979 -4.92 a 543.55875 543.55875 0 0 0 -66.08984 -11.52 a 14.78536 14.78536 0 0 0 -18.03028 10.41 l -11.10986 41 a 14.77688 14.77688 0 0 0 10.39014 18.11 l 0.1499 0.03 c 14.7002 1.67 29.54 3.99 44.29981 6.95 c 1.32031 0.26 2.63037 0.53 3.95019 0.81 q 7.095 1.47006 14.1499 3.14 c 2.06006 0.48 4.10987 0.98 6.16992 1.49 q 8.31006 2.07 16.63038 4.41 q 9.25488 2.61 18.51953 5.57 c 0.67041 0.2 1.34033 0.41 2 0.63 v -75.54 C 458.92687 366.86777 458.257 366.67776 457.58654 366.49777 Z" stroke-linecap="round"/>
</g>
		<g transform="matrix(1 0 0 1 -198.8004 -53.9127)">
<path style="stroke: none; stroke-width: 1; stroke-dasharray: none; stroke-linecap: butt; stroke-dashoffset: 0; stroke-linejoin: miter; stroke-miterlimit: 4; is-custom-font: none; font-file-url: none; fill: rgb(232,26,65); fill-rule: nonzero; opacity: 1;" transform=" translate(-401.1996, -396.0873)" d="M 457.58654 366.49777 q -9.47975 -2.65494 -19.02979 -4.92 a 543.55875 543.55875 0 0 0 -66.08984 -11.52 a 14.78536 14.78536 0 0 0 -18.03028 10.41 l -11.10986 41 a 14.77688 14.77688 0 0 0 10.39014 18.11 l 0.1499 0.03 c 14.7002 1.67 29.54 3.99 44.29981 6.95 c 1.32031 0.26 2.63037 0.53 3.95019 0.81 q 7.095 1.47006 14.1499 3.14 c 2.06006 0.48 4.10987 0.98 6.16992 1.49 q 8.31006 2.07 16.63038 4.41 q 9.25488 2.61 18.51953 5.57 c 0.67041 0.2 1.34033 0.41 2 0.63 v -2.11005 c -0.66992 -0.21 -1.33985 -0.42 -2 -0.63 q -8.51954 -2.715 -17.01953 -5.11 q -3.18018 -0.915 -6.36036 -1.77 q -5.72973 -1.545 -11.42968 -2.96 q -3.03 -0.765 -6.0503 -1.47 c -0.1499 -0.04 -0.31 -0.07 -0.46 -0.11 q -5.14525 -1.215 -10.31006 -2.32 c -1.31982 -0.28 -2.63964 -0.56 -3.96 -0.83 c -15.91992 -3.3 -31.96 -5.87 -47.83007 -7.67 a 12.77678 12.77678 0 0 1 -8.90967 -15.63 l 11.10986 -41.01 a 12.76707 12.76707 0 0 1 15.6499 -8.97 l 0.14991 0.02 a 541.78164 541.78164 0 0 1 65.26025 11.32 c 0.21973 0.06 0.43994 0.11 0.65967 0.16 q 9.78076 2.34 19.5 5.06 c 0.66015 0.18 1.33008 0.37 2 0.57 v -2.08 C 458.92687 366.86777 458.257 366.67776 457.58654 366.49777 Z" stroke-linecap="round"/>
</g>
		<g transform="matrix(1 0 0 1 -162.799 -47.9522)">
<path style="stroke: none; stroke-width: 1; stroke-dasharray: none; stroke-linecap: butt; stroke-dashoffset: 0; stroke-linejoin: miter; stroke-miterlimit: 4; is-custom-font: none; font-file-url: none; fill: rgb(232,26,65); fill-rule: nonzero; opacity: 1;" transform=" translate(-437.2009, -402.0478)" d="M 459.58654 368.10782 v 73.43994 c -0.66992 -0.22 -1.32959 -0.43 -2 -0.63995 q -8.86451 -2.835 -17.78955 -5.34 q -8.56567 -2.43 -17.18994 -4.57 c -2.04 -0.5 -4.07032 -0.99 -6.11036 -1.47 c -0.08007 -0.36 -0.16015 -0.72 -0.23 -1.08 c -0.37011 -1.72 -0.65966 -3.46 -0.87988 -5.21 c -0.1001 -0.67 -0.16992 -1.34 -0.24023 -2.02 a 69.06736 69.06736 0 0 1 22.28027 -57.86 c 0.29 -0.28 0.58984 -0.55 0.89014 -0.81006 q 9.68994 2.31006 19.26953 5 C 458.257 367.7178 458.92687 367.90781 459.58654 368.10782 Z" stroke-linecap="round"/>
</g>
		<g transform="matrix(1 0 0 1 -221.6172 -46.0133)">
<path style="stroke: none; stroke-width: 1; stroke-dasharray: none; stroke-linecap: butt; stroke-dashoffset: 0; stroke-linejoin: miter; stroke-miterlimit: 4; is-custom-font: none; font-file-url: none; fill: rgb(232,26,65); fill-rule: nonzero; opacity: 1;" transform=" translate(-378.3828, -403.9867)" d="M 393.17687 398.17776 l -27.81006 -3.28 a 7.50176 7.50176 0 1 0 -1.75976 14.9 l 27.80957 3.28 a 7.50183 7.50183 0 0 0 1.76025 -14.9 Z m 4.58008 8.1 a 5.50577 5.50577 0 0 1 -6.11035 4.81 l -27.81006 -3.28 a 5.498 5.498 0 0 1 1.29 -10.92 l 27.81 3.28 A 5.52 5.52 0 0 1 397.757 406.2778 Z" stroke-linecap="round"/>
</g>
		<g transform="matrix(1 0 0 1 -155.6192 -47.2827)">
<path style="stroke: none; stroke-width: 1; stroke-dasharray: none; stroke-linecap: butt; stroke-dashoffset: 0; stroke-linejoin: miter; stroke-miterlimit: 4; is-custom-font: none; font-file-url: none; fill: rgb(255,255,255); fill-rule: nonzero; opacity: 1;" transform=" translate(-444.3808, -402.7174)" d="M 459.58654 385.30777 v 34.83 a 16.29819 16.29819 0 0 1 -2 1.02 a 20.16757 20.16757 0 0 1 -21.83985 -3.54 c -0.27978 -0.25 -0.56006 -0.52 -0.83007 -0.8 c -0.27 -0.27 -0.52979 -0.56 -0.77979 -0.85 a 20.18647 20.18647 0 0 1 23.44971 -31.69 A 20.895 20.895 0 0 1 459.58654 385.30777 Z" stroke-linecap="round"/>
</g>
		<g transform="matrix(1 0 0 1 -194.8007 10.2513)">
<path style="stroke: none; stroke-width: 1; stroke-dasharray: none; stroke-linecap: butt; stroke-dashoffset: 0; stroke-linejoin: miter; stroke-miterlimit: 4; is-custom-font: none; font-file-url: none; fill: rgb(255,255,255); fill-rule: nonzero; opacity: 1;" transform=" translate(-405.1992, -460.2514)" d="M 457.58654 410.51779 q -11.80445 2.46 -23.44971 5.45 q -4.34985 1.11 -8.66992 2.3 q -5.15991 1.425 -10.32031 2.95 q -6.58447 1.95 -13.14991 4.08 c -1.27 0.42 -2.5498 0.84 -3.83007 1.26 c -12.16993 4.06 -24.25977 8.56 -36.14991 13.47 a 14.787 14.787 0 0 0 -10.79 17.81 l 10.03028 41.28 a 14.779 14.779 0 0 0 17.82959 10.86 l 0.14013 -0.05 a 533.8519 533.8519 0 0 1 59.93018 -20.51995 q 9.12012 -2.535 18.42969 -4.78 c 0.67041 -0.16 1.33008 -0.32 2 -0.47 v -74.05 C 458.91662 410.22781 458.257 410.36777 457.58654 410.51779 Z" stroke-linecap="round"/>
</g>
		<g transform="matrix(1 0 0 1 -194.8007 10.2513)">
<path style="stroke: none; stroke-width: 1; stroke-dasharray: none; stroke-linecap: butt; stroke-dashoffset: 0; stroke-linejoin: miter; stroke-miterlimit: 4; is-custom-font: none; font-file-url: none; fill: rgb(232,26,65); fill-rule: nonzero; opacity: 1;" transform=" translate(-405.1992, -460.2514)" d="M 457.58654 410.51779 q -11.80445 2.46 -23.44971 5.45 q -4.34985 1.11 -8.66992 2.3 q -5.15991 1.425 -10.32031 2.95 q -6.58447 1.95 -13.14991 4.08 c -1.27 0.42 -2.5498 0.84 -3.83007 1.26 c -12.16993 4.06 -24.25977 8.56 -36.14991 13.47 a 14.787 14.787 0 0 0 -10.79 17.81 l 10.03028 41.28 a 14.779 14.779 0 0 0 17.82959 10.86 l 0.14013 -0.05 a 533.8519 533.8519 0 0 1 59.93018 -20.51995 q 9.12012 -2.535 18.42969 -4.78 c 0.67041 -0.16 1.33008 -0.32 2 -0.47 v -2.06 c -0.66992 0.16 -1.32959 0.32 -2 0.48 c -0.5 0.12 -1.00977 0.24 -1.50977 0.36 q -8.81982 2.145 -17.45019 4.54 c -0.14991 0.04 -0.30957 0.09 -0.46 0.13 a 533.386 533.386 0 0 0 -59.62989 20.45 a 12.788 12.788 0 0 1 -15.33984 -9.41 l -10.02 -41.28 a 12.77239 12.77239 0 0 1 9.37988 -15.41 l 0.1499 -0.05 c 12.9502 -5.36005 26.12989 -10.22 39.41016 -14.54 c 1.27979 -0.42 2.56006 -0.83 3.83984 -1.24 q 4.71021 -1.485 9.43018 -2.89 q 4.97973 -1.485 9.94971 -2.86 q 0.33032 -0.09 0.66015 -0.18 q 4.86036 -1.335 9.75 -2.58 q 10.845 -2.76 21.83985 -5.07 c 0.66015 -0.13995 1.33008 -0.28 2 -0.41 v -2.03 C 458.91662 410.22781 458.257 410.36777 457.58654 410.51779 Z" stroke-linecap="round"/>
</g>
		<g transform="matrix(1 0 0 1 -159.4064 -0.2172)">
<path style="stroke: none; stroke-width: 1; stroke-dasharray: none; stroke-linecap: butt; stroke-dashoffset: 0; stroke-linejoin: miter; stroke-miterlimit: 4; is-custom-font: none; font-file-url: none; fill: rgb(232,26,65); fill-rule: nonzero; opacity: 1;" transform=" translate(-440.5936, -449.7828)" d="M 459.58654 411.11777 v 72.01 c -0.65967 0.15 -1.32959 0.3 -2 0.46 q -9.38966 2.28 -18.69971 4.86 q -0.375 -0.41994 -0.72021 -0.84 a 69.12021 69.12021 0 0 1 -15.73 -55.61 c 0.0503 -0.32995 0.11036 -0.67 0.17042 -1 c 0.0498 -0.32 0.10986 -0.65 0.16992 -0.97 a 68.50813 68.50813 0 0 1 2.55957 -9.65 c 0.13037 -0.38 0.26025 -0.76 0.40039 -1.14 q 4.5747 -1.25994 9.17969 -2.42 q 11.26538 -2.91 22.66992 -5.29 C 458.24669 411.37778 458.91662 411.24777 459.58654 411.11777 Z" stroke-linecap="round"/>
</g>
		<g transform="matrix(1 0 0 1 -206.8055 34.427)">
<path style="stroke: none; stroke-width: 1; stroke-dasharray: none; stroke-linecap: butt; stroke-dashoffset: 0; stroke-linejoin: miter; stroke-miterlimit: 4; is-custom-font: none; font-file-url: none; fill: rgb(232,26,65); fill-rule: nonzero; opacity: 1;" transform=" translate(-393.1945, -484.427)" d="M 413.11681 476.34781 a 7.50906 7.50906 0 0 0 -9.77 -4.13 l -25.95019 10.52 a 7.50036 7.50036 0 0 0 5.64013 13.9 l 25.9502 -10.52 A 7.51745 7.51745 0 0 0 413.11681 476.34781 Z m -4.87988 7.91 l -25.9502 10.53 a 5.50411 5.50411 0 0 1 -4.14013 -10.2 l 25.95019 -10.52 a 5.49947 5.49947 0 1 1 4.14014 10.19 Z" stroke-linecap="round"/>
</g>
		<g transform="matrix(1 0 0 1 -152.9184 -0.8829)">
<path style="stroke: none; stroke-width: 1; stroke-dasharray: none; stroke-linecap: butt; stroke-dashoffset: 0; stroke-linejoin: miter; stroke-miterlimit: 4; is-custom-font: none; font-file-url: none; fill: rgb(255,255,255); fill-rule: nonzero; opacity: 1;" transform=" translate(-447.0815, -449.1171)" d="M 459.58654 429.50778 v 39.21 a 19.61078 19.61078 0 0 1 -2 0.4 a 20.2054 20.2054 0 0 1 -18.51953 -32.71 c 0.23 -0.29 0.46972 -0.57 0.73 -0.84 c 0.23974 -0.28 0.5 -0.55 0.77 -0.81 a 20.19723 20.19723 0 0 1 17.01953 -5.64 A 17.20007 17.20007 0 0 1 459.58654 429.50778 Z" stroke-linecap="round"/>
</g>
		<g transform="matrix(1 0 0 1 86.0865 -0.9822)">
<path style="stroke: none; stroke-width: 1; stroke-dasharray: none; stroke-linecap: butt; stroke-dashoffset: 0; stroke-linejoin: miter; stroke-miterlimit: 4; is-custom-font: none; font-file-url: none; fill: rgb(47,46,65); fill-rule: nonzero; opacity: 1;" transform=" translate(-686.0865, -449.0178)" d="M 457.58654 361.28781 v 99.81 c 0.67041 -0.22 1.34033 -0.43 2 -0.63 v -98.27 C 458.91662 361.88779 458.257 361.5878 457.58654 361.28781 Z m 0 0 v 99.81 c 0.67041 -0.22 1.34033 -0.43 2 -0.63 v -98.27 C 458.91662 361.88779 458.257 361.5878 457.58654 361.28781 Z m 0 0 v 99.81 c 0.67041 -0.22 1.34033 -0.43 2 -0.63 v -98.27 C 458.91662 361.88779 458.257 361.5878 457.58654 361.28781 Z m 0 7.29 v 115.01 c 0.67041 -0.16 1.34033 -0.31 2 -0.46 v -113.98 C 458.91662 368.94778 458.24669 368.75778 457.58654 368.57779 Z m 0 0 v 115.01 c 0.67041 -0.16 1.34033 -0.31 2 -0.46 v -113.98 C 458.91662 368.94778 458.24669 368.75778 457.58654 368.57779 Z m 0 0 v 115.01 c 0.67041 -0.16 1.34033 -0.31 2 -0.46 v -113.98 C 458.91662 368.94778 458.24669 368.75778 457.58654 368.57779 Z m 0 0 v 115.01 c 0.67041 -0.16 1.34033 -0.31 2 -0.46 v -113.98 C 458.91662 368.94778 458.24669 368.75778 457.58654 368.57779 Z m 0 0 v 116.05 c 0.67041 -0.16 1.33008 -0.32 2 -0.47 v -115.01 C 458.91662 368.94778 458.24669 368.75778 457.58654 368.57779 Z m 436.25 -94.56 H 478.34679 a 20.79476 20.79476 0 0 0 -20.76025 20.76 v 308.49 a 20.78542 20.78542 0 0 0 20.76025 20.75 H 893.83654 a 20.77527 20.77527 0 0 0 20.75 -20.75 v -308.49 A 20.77739 20.77739 0 0 0 893.83654 274.01779 Z m 18.75 329.25 a 18.76944 18.76944 0 0 1 -18.75 18.75 H 478.34679 a 18.77786 18.77786 0 0 1 -18.76025 -18.75 v -308.49 a 18.78835 18.78835 0 0 1 18.76025 -18.76 H 893.83654 a 18.77157 18.77157 0 0 1 18.75 18.76 Z m -455 -234.69 v 114 c 0.67041 -0.16 1.33008 -0.32 2 -0.48 v -112.95 C 458.91662 368.94778 458.24669 368.75778 457.58654 368.57779 Z m 0 0 v 115.01 c 0.67041 -0.16 1.34033 -0.31 2 -0.46 v -113.98 C 458.91662 368.94778 458.24669 368.75778 457.58654 368.57779 Z m 0 0 v 115.01 c 0.67041 -0.16 1.34033 -0.31 2 -0.46 v -113.98 C 458.91662 368.94778 458.24669 368.75778 457.58654 368.57779 Z m 0 0 v 115.01 c 0.67041 -0.16 1.34033 -0.31 2 -0.46 v -113.98 C 458.91662 368.94778 458.24669 368.75778 457.58654 368.57779 Z m 0 -7.29 v 99.81 c 0.67041 -0.22 1.34033 -0.43 2 -0.63 v -98.27 C 458.91662 361.88779 458.257 361.5878 457.58654 361.28781 Z m 0 0 v 99.81 c 0.67041 -0.22 1.34033 -0.43 2 -0.63 v -98.27 C 458.91662 361.88779 458.257 361.5878 457.58654 361.28781 Z" stroke-linecap="round"/>
</g>
		<g transform="matrix(1 0 0 1 -246.2346 12.8147)">
<path style="stroke: none; stroke-width: 1; stroke-dasharray: none; stroke-linecap: butt; stroke-dashoffset: 0; stroke-linejoin: miter; stroke-miterlimit: 4; is-custom-font: none; font-file-url: none; fill: rgb(255,182,182); fill-rule: nonzero; opacity: 1;" transform=" translate(-353.7654, -462.8146)" d="M 368.51272 466.89283 a 6.8032 6.8032 0 0 0 -9.9903 -3.00323 l -19.17078 -14.73023 L 338.44581 461.69 l 18.34377 12.067 a 6.8401 6.8401 0 0 0 11.72314 -6.86416 Z" stroke-linecap="round"/>
</g>
		<g transform="matrix(1 0 0 1 -282.0833 -28.327)">
<path style="stroke: none; stroke-width: 1; stroke-dasharray: none; stroke-linecap: butt; stroke-dashoffset: 0; stroke-linejoin: miter; stroke-miterlimit: 4; is-custom-font: none; font-file-url: none; fill: rgb(63,61,86); fill-rule: nonzero; opacity: 1;" transform=" translate(-317.9167, -421.673)" d="M 291.26168 377.99533 l -6.30828 -2.9813 s -10.16255 2.8586 -5.22529 16.297 l 29.87924 55.66365 l 36.47886 21.35737 l 11.3721 -10.07738 l -36.50509 -28.88422 Z" stroke-linecap="round"/>
</g>
</g>
</g>
</svg>