<svg xmlns="http://www.w3.org/2000/svg" xmlns:xlink="http://www.w3.org/1999/xlink" version="1.1" width="1000" height="1000" viewBox="0 0 1000 1000" xml:space="preserve">
<desc>Created with Fabric.js 3.5.0</desc>
<defs>
</defs>
<rect x="0" y="0" width="100%" height="100%" fill="#ffffff"/>
<g transform="matrix(0.8176 0 0 0.8176 499.9827 499.9864)" id="926603">
<g style="" vector-effect="non-scaling-stroke">
		<g transform="matrix(1 0 0 1 -167.3964 -14.7947)">
<path style="stroke: none; stroke-width: 1; stroke-dasharray: none; stroke-linecap: butt; stroke-dashoffset: 0; stroke-linejoin: miter; stroke-miterlimit: 4; is-custom-font: none; font-file-url: none; fill: rgb(63,61,86); fill-rule: nonzero; opacity: 1;" transform=" translate(-432.6035, -435.2052)" d="M 593.26357 266.136 h -3.54069 V 169.13919 A 56.13918 56.13918 0 0 0 533.58377 113 H 328.0828 a 56.13913 56.13913 0 0 0 -56.13933 56.13893 v 532.1324 a 56.13909 56.13909 0 0 0 56.13905 56.13917 h 205.501 a 56.13914 56.13914 0 0 0 56.13933 -56.13895 V 335.18 h 3.54069 Z" stroke-linecap="round"/>
</g>
		<g transform="matrix(1 0 0 1 -167.8193 -13.467)">
<path style="stroke: none; stroke-width: 1; stroke-dasharray: none; stroke-linecap: butt; stroke-dashoffset: 0; stroke-linejoin: miter; stroke-miterlimit: 4; is-custom-font: none; font-file-url: none; fill: rgb(255,255,255); fill-rule: nonzero; opacity: 1;" transform=" translate(-432.1807, -436.533)" d="M 535.426 128.93322 H 508.60134 A 19.918 19.918 0 0 1 490.16 156.37379 H 372.4311 a 19.91806 19.91806 0 0 1 -18.44139 -27.44057 H 328.93542 a 41.92409 41.92409 0 0 0 -41.92413 41.924 V 702.20874 a 41.92407 41.92407 0 0 0 41.92408 41.92408 H 535.426 a 41.92411 41.92411 0 0 0 41.92414 -41.924 V 170.8573 a 41.92407 41.92407 0 0 0 -41.92408 -41.92408 Z m -4.50666 246.49737 a 10.8911 10.8911 0 0 1 -10.8592 10.8592 H 467.574 a 10.89109 10.89109 0 0 1 -10.8592 -10.8592 v -2.7148 a 10.89111 10.89111 0 0 1 10.8592 -10.8592 h 52.48612 a 10.89115 10.89115 0 0 1 10.8592 10.8592 Z m 5.88207 -47.96146 a 10.89111 10.89111 0 0 1 -10.8592 10.8592 H 337.7161 a 10.89109 10.89109 0 0 1 -10.8592 -10.8592 v -2.7148 a 10.89112 10.89112 0 0 1 10.8592 -10.8592 H 525.94221 a 10.89116 10.89116 0 0 1 10.8592 10.8592 Z m 0 -47.96146 a 10.89111 10.89111 0 0 1 -10.8592 10.8592 H 337.7161 a 10.89109 10.89109 0 0 1 -10.8592 -10.8592 v -2.7148 a 10.89112 10.89112 0 0 1 10.8592 -10.8592 H 525.94221 a 10.89116 10.89116 0 0 1 10.8592 10.8592 Z m 0 -47.96146 a 10.8911 10.8911 0 0 1 -10.8592 10.8592 H 337.7161 a 10.89109 10.89109 0 0 1 -10.8592 -10.8592 v -2.7148 a 10.89111 10.89111 0 0 1 10.8592 -10.8592 H 525.94221 a 10.89116 10.89116 0 0 1 10.8592 10.8592 Z" stroke-linecap="round"/>
</g>
		<g transform="matrix(1 0 0 1 -258.2117 -123.4358)">
<circle style="stroke: none; stroke-width: 1; stroke-dasharray: none; stroke-linecap: butt; stroke-dashoffset: 0; stroke-linejoin: miter; stroke-miterlimit: 4; is-custom-font: none; font-file-url: none; fill: rgb(255,255,255); fill-rule: nonzero; opacity: 1;" cx="0" cy="0" r="6.33453"/>
</g>
		<g transform="matrix(1 0 0 1 -237.3983 -123.4358)">
<circle style="stroke: none; stroke-width: 1; stroke-dasharray: none; stroke-linecap: butt; stroke-dashoffset: 0; stroke-linejoin: miter; stroke-miterlimit: 4; is-custom-font: none; font-file-url: none; fill: rgb(255,255,255); fill-rule: nonzero; opacity: 1;" cx="0" cy="0" r="6.33453"/>
</g>
		<g transform="matrix(1 0 0 1 -216.5848 -123.4358)">
<circle style="stroke: none; stroke-width: 1; stroke-dasharray: none; stroke-linecap: butt; stroke-dashoffset: 0; stroke-linejoin: miter; stroke-miterlimit: 4; is-custom-font: none; font-file-url: none; fill: rgb(255,255,255); fill-rule: nonzero; opacity: 1;" cx="0" cy="0" r="6.33453"/>
</g>
		<g transform="matrix(1 0 0 1 -195.7713 -123.4358)">
<circle style="stroke: none; stroke-width: 1; stroke-dasharray: none; stroke-linecap: butt; stroke-dashoffset: 0; stroke-linejoin: miter; stroke-miterlimit: 4; is-custom-font: none; font-file-url: none; fill: rgb(255,255,255); fill-rule: nonzero; opacity: 1;" cx="0" cy="0" r="6.33453"/>
</g>
		<g transform="matrix(1 0 0 1 -127.9013 -75.4743)">
<circle style="stroke: none; stroke-width: 1; stroke-dasharray: none; stroke-linecap: butt; stroke-dashoffset: 0; stroke-linejoin: miter; stroke-miterlimit: 4; is-custom-font: none; font-file-url: none; fill: rgb(255,255,255); fill-rule: nonzero; opacity: 1;" cx="0" cy="0" r="6.33453"/>
</g>
		<g transform="matrix(1 0 0 1 -107.0879 -75.4743)">
<circle style="stroke: none; stroke-width: 1; stroke-dasharray: none; stroke-linecap: butt; stroke-dashoffset: 0; stroke-linejoin: miter; stroke-miterlimit: 4; is-custom-font: none; font-file-url: none; fill: rgb(255,255,255); fill-rule: nonzero; opacity: 1;" cx="0" cy="0" r="6.33453"/>
</g>
		<g transform="matrix(1 0 0 1 -86.2744 -75.4743)">
<circle style="stroke: none; stroke-width: 1; stroke-dasharray: none; stroke-linecap: butt; stroke-dashoffset: 0; stroke-linejoin: miter; stroke-miterlimit: 4; is-custom-font: none; font-file-url: none; fill: rgb(255,255,255); fill-rule: nonzero; opacity: 1;" cx="0" cy="0" r="6.33453"/>
</g>
		<g transform="matrix(1 0 0 1 -169.0758 77.9119)">
<path style="stroke: none; stroke-width: 1; stroke-dasharray: none; stroke-linecap: butt; stroke-dashoffset: 0; stroke-linejoin: miter; stroke-miterlimit: 4; is-custom-font: none; font-file-url: none; fill: rgb(232,26,65); fill-rule: nonzero; opacity: 1;" transform=" translate(-430.9242, -527.9119)" d="M 538.25762 456.6012 H 323.5908 a 19.01566 19.01566 0 0 0 -19.01568 19.01563 v 104.59 a 19.01571 19.01571 0 0 0 19.01566 19.01571 H 538.25762 a 19.0157 19.0157 0 0 0 19.0157 -19.01565 V 475.61688 a 19.01566 19.01566 0 0 0 -19.0156 -19.01568 Z m -219.978 12.97163 c 0.42392 -0.07665 10.47581 -1.78725 18.79934 3.22117 c 8.323 5.00748 11.52088 14.6906 11.65264 15.1 l 0.33649 1.04412 l -1.0801 0.19161 a 28.669 28.669 0 0 1 -4.65836 0.34214 a 27.73763 27.73763 0 0 1 -14.14144 -3.56421 c -8.323 -5.00653 -11.52041 -14.6897 -11.65221 -15.09912 l -0.33651 -1.04411 Z m 46.59851 97.10524 H 326.59051 a 10.52909 10.52909 0 0 1 0 -21.05818 h 38.28762 a 10.52909 10.52909 0 0 1 0 21.05818 Z m 174.2086 -1.91436 A 11.5201 11.5201 0 0 1 527.60041 576.25 H 498.88473 a 11.5201 11.5201 0 0 1 -11.48627 -11.48627 V 547.53425 A 11.52 11.52 0 0 1 498.88473 536.048 h 28.71568 a 11.52 11.52 0 0 1 11.48627 11.48627 Z" stroke-linecap="round"/>
</g>
		<g transform="matrix(1 0 0 1 -97.6296 114.3217)">
<path style="stroke: none; stroke-width: 1; stroke-dasharray: none; stroke-linecap: butt; stroke-dashoffset: 0; stroke-linejoin: miter; stroke-miterlimit: 4; is-custom-font: none; font-file-url: none; fill: rgb(63,61,86); fill-rule: nonzero; opacity: 1;" transform=" translate(-502.3704, -564.3217)" d="M 508.14328 561.21324 H 496.5975 a 3.10848 3.10848 0 0 0 0 6.217 h 11.54578 a 3.10849 3.10849 0 0 0 0 -6.217 Z" stroke-linecap="round"/>
</g>
		<g transform="matrix(1 0 0 1 -76.3143 114.3217)">
<path style="stroke: none; stroke-width: 1; stroke-dasharray: none; stroke-linecap: butt; stroke-dashoffset: 0; stroke-linejoin: miter; stroke-miterlimit: 4; is-custom-font: none; font-file-url: none; fill: rgb(63,61,86); fill-rule: nonzero; opacity: 1;" transform=" translate(-523.6857, -564.3217)" d="M 529.45864 561.21324 H 517.91281 a 3.10848 3.10848 0 0 0 0 6.217 H 529.4586 a 3.10849 3.10849 0 0 0 0 -6.217 Z" stroke-linecap="round"/>
</g>
		<g transform="matrix(1 0 0 1 -97.6313 105.5469)">
<path style="stroke: none; stroke-width: 1; stroke-dasharray: none; stroke-linecap: butt; stroke-dashoffset: 0; stroke-linejoin: miter; stroke-miterlimit: 4; is-custom-font: none; font-file-url: none; fill: rgb(63,61,86); fill-rule: nonzero; opacity: 1;" transform=" translate(-502.3687, -555.5469)" d="M 508.14155 552.43841 H 496.59576 a 3.10848 3.10848 0 0 0 0 6.217 h 11.54579 a 3.10848 3.10848 0 0 0 0 -6.217 Z" stroke-linecap="round"/>
</g>
		<g transform="matrix(1 0 0 1 -76.316 105.5469)">
<path style="stroke: none; stroke-width: 1; stroke-dasharray: none; stroke-linecap: butt; stroke-dashoffset: 0; stroke-linejoin: miter; stroke-miterlimit: 4; is-custom-font: none; font-file-url: none; fill: rgb(63,61,86); fill-rule: nonzero; opacity: 1;" transform=" translate(-523.684, -555.5469)" d="M 529.45691 552.43841 H 517.91107 a 3.10848 3.10848 0 0 0 0 6.217 h 11.54579 a 3.10848 3.10848 0 0 0 0 -6.217 Z" stroke-linecap="round"/>
</g>
		<g transform="matrix(1 0 0 1 -97.6313 96.9497)">
<path style="stroke: none; stroke-width: 1; stroke-dasharray: none; stroke-linecap: butt; stroke-dashoffset: 0; stroke-linejoin: miter; stroke-miterlimit: 4; is-custom-font: none; font-file-url: none; fill: rgb(63,61,86); fill-rule: nonzero; opacity: 1;" transform=" translate(-502.3687, -546.9497)" d="M 508.14155 543.84123 H 496.59576 a 3.10848 3.10848 0 0 0 0 6.217 h 11.54579 a 3.10848 3.10848 0 0 0 0 -6.217 Z" stroke-linecap="round"/>
</g>
		<g transform="matrix(1 0 0 1 -76.316 96.9497)">
<path style="stroke: none; stroke-width: 1; stroke-dasharray: none; stroke-linecap: butt; stroke-dashoffset: 0; stroke-linejoin: miter; stroke-miterlimit: 4; is-custom-font: none; font-file-url: none; fill: rgb(63,61,86); fill-rule: nonzero; opacity: 1;" transform=" translate(-523.684, -546.9497)" d="M 529.45691 543.84123 H 517.91107 a 3.10848 3.10848 0 0 0 0 6.217 h 11.54579 a 3.10848 3.10848 0 0 0 0 -6.217 Z" stroke-linecap="round"/>
</g>
		<g transform="matrix(1 0 0 1 72.939 60)">
<rect style="stroke: none; stroke-width: 1; stroke-dasharray: none; stroke-linecap: butt; stroke-dashoffset: 0; stroke-linejoin: miter; stroke-miterlimit: 4; is-custom-font: none; font-file-url: none; fill: rgb(230,230,230); fill-rule: nonzero; opacity: 1;" x="-14" y="-14" rx="0" ry="0" width="28" height="28"/>
</g>
		<g transform="matrix(1 0 0 1 48.939 86)">
<path style="stroke: none; stroke-width: 1; stroke-dasharray: none; stroke-linecap: butt; stroke-dashoffset: 0; stroke-linejoin: miter; stroke-miterlimit: 4; is-custom-font: none; font-file-url: none; fill: rgb(63,61,86); fill-rule: nonzero; opacity: 1;" transform=" translate(-648.939, -536)" d="M 625.939 513 h 46 v 46 h -46 Z m 44 2 h -42 v 42 h 42 Z" stroke-linecap="round"/>
</g>
		<g transform="matrix(1 0 0 1 -414.061 -171)">
<rect style="stroke: none; stroke-width: 1; stroke-dasharray: none; stroke-linecap: butt; stroke-dashoffset: 0; stroke-linejoin: miter; stroke-miterlimit: 4; is-custom-font: none; font-file-url: none; fill: rgb(230,230,230); fill-rule: nonzero; opacity: 1;" x="-14" y="-14" rx="0" ry="0" width="28" height="28"/>
</g>
		<g transform="matrix(1 0 0 1 -390.061 -197)">
<path style="stroke: none; stroke-width: 1; stroke-dasharray: none; stroke-linecap: butt; stroke-dashoffset: 0; stroke-linejoin: miter; stroke-miterlimit: 4; is-custom-font: none; font-file-url: none; fill: rgb(63,61,86); fill-rule: nonzero; opacity: 1;" transform=" translate(-209.939, -253)" d="M 232.939 276 h -46 V 230 h 46 Z m -44 -2 h 42 V 232 h -42 Z" stroke-linecap="round"/>
</g>
		<g transform="matrix(1 0 0 1 215.971 300.773)">
<polygon style="stroke: none; stroke-width: 1; stroke-dasharray: none; stroke-linecap: butt; stroke-dashoffset: 0; stroke-linejoin: miter; stroke-miterlimit: 4; is-custom-font: none; font-file-url: none; fill: rgb(255,184,184); fill-rule: nonzero; opacity: 1;" points="9.045,23.644 -3.215,23.644 -9.047,-23.644 9.047,-23.644 9.045,23.644 "/>
</g>
		<g transform="matrix(1 0 0 1 208.3775 328.357)">
<path style="stroke: none; stroke-width: 1; stroke-dasharray: none; stroke-linecap: butt; stroke-dashoffset: 0; stroke-linejoin: miter; stroke-miterlimit: 4; is-custom-font: none; font-file-url: none; fill: rgb(47,46,65); fill-rule: nonzero; opacity: 1;" transform=" translate(-636.4385, -665.3571)" d="M 632.06 657.91362 H 655.7039 a 0 0 0 0 1 0 0 v 14.88687 a 0 0 0 0 1 0 0 H 617.17317 a 0 0 0 0 1 0 0 v 0 A 14.88686 14.88686 0 0 1 632.06 657.91362 Z" stroke-linecap="round"/>
</g>
		<g transform="matrix(1 0 0 1 276.971 300.773)">
<polygon style="stroke: none; stroke-width: 1; stroke-dasharray: none; stroke-linecap: butt; stroke-dashoffset: 0; stroke-linejoin: miter; stroke-miterlimit: 4; is-custom-font: none; font-file-url: none; fill: rgb(255,184,184); fill-rule: nonzero; opacity: 1;" points="9.045,23.644 -3.215,23.644 -9.047,-23.644 9.047,-23.644 9.045,23.644 "/>
</g>
		<g transform="matrix(1 0 0 1 269.3775 328.357)">
<path style="stroke: none; stroke-width: 1; stroke-dasharray: none; stroke-linecap: butt; stroke-dashoffset: 0; stroke-linejoin: miter; stroke-miterlimit: 4; is-custom-font: none; font-file-url: none; fill: rgb(47,46,65); fill-rule: nonzero; opacity: 1;" transform=" translate(-697.4385, -665.3571)" d="M 693.06 657.91362 H 716.7039 a 0 0 0 0 1 0 0 v 14.88687 a 0 0 0 0 1 0 0 H 678.17317 a 0 0 0 0 1 0 0 v 0 A 14.88686 14.88686 0 0 1 693.06 657.91362 Z" stroke-linecap="round"/>
</g>
		<g transform="matrix(1 0 0 1 195.9345 92.3458)">
<path style="stroke: none; stroke-width: 1; stroke-dasharray: none; stroke-linecap: butt; stroke-dashoffset: 0; stroke-linejoin: miter; stroke-miterlimit: 4; is-custom-font: none; font-file-url: none; fill: rgb(255,184,184); fill-rule: nonzero; opacity: 1;" transform=" translate(-795.9346, -542.3457)" d="M 763.51493 605.30342 a 10.74267 10.74267 0 0 1 4.51052 -15.84306 l 41.67577 -114.86668 l 20.5071 11.19135 L 782.62359 595.55579 a 10.80091 10.80091 0 0 1 -19.10866 9.74763 Z" stroke-linecap="round"/>
</g>
		<g transform="matrix(1 0 0 1 279.9688 108.7577)">
<path style="stroke: none; stroke-width: 1; stroke-dasharray: none; stroke-linecap: butt; stroke-dashoffset: 0; stroke-linejoin: miter; stroke-miterlimit: 4; is-custom-font: none; font-file-url: none; fill: rgb(255,184,184); fill-rule: nonzero; opacity: 1;" transform=" translate(-879.9688, -558.7577)" d="M 879.75379 626.88737 a 10.74271 10.74271 0 0 1 -2.89305 -16.21659 L 863.95 489.16137 l 23.33776 1.06622 L 892.65342 609.748 a 10.80091 10.80091 0 0 1 -12.89963 17.13934 Z" stroke-linecap="round"/>
</g>
		<g transform="matrix(1 0 0 1 242.5231 -21.2437)">
<circle style="stroke: none; stroke-width: 1; stroke-dasharray: none; stroke-linecap: butt; stroke-dashoffset: 0; stroke-linejoin: miter; stroke-miterlimit: 4; is-custom-font: none; font-file-url: none; fill: rgb(255,184,184); fill-rule: nonzero; opacity: 1;" cx="0" cy="0" r="24.56103"/>
</g>
		<g transform="matrix(1 0 0 1 246.4442 80.8153)">
<path style="stroke: none; stroke-width: 1; stroke-dasharray: none; stroke-linecap: butt; stroke-dashoffset: 0; stroke-linejoin: miter; stroke-miterlimit: 4; is-custom-font: none; font-file-url: none; fill: rgb(204,204,204); fill-rule: nonzero; opacity: 1;" transform=" translate(-846.4442, -530.8153)" d="M 879.59694 599.25244 H 805.55006 l 0.08911 -0.57617 c 0.13306 -0.86133 13.19678 -86.439 3.56177 -114.436 a 11.813 11.813 0 0 1 6.06934 -14.58349 h 0.00024 c 13.77173 -6.48535 40.20752 -14.47119 62.52 4.90918 a 28.23446 28.23446 0 0 1 9.45947 23.396 Z" stroke-linecap="round"/>
</g>
		<g transform="matrix(1 0 0 1 208.0208 47.753)">
<path style="stroke: none; stroke-width: 1; stroke-dasharray: none; stroke-linecap: butt; stroke-dashoffset: 0; stroke-linejoin: miter; stroke-miterlimit: 4; is-custom-font: none; font-file-url: none; fill: rgb(204,204,204); fill-rule: nonzero; opacity: 1;" transform=" translate(-808.0207, -497.753)" d="M 819.77174 524.88428 l -33.33667 -6.76319 l 15.62622 -37.02978 a 13.99723 13.99723 0 0 1 27.10571 6.99756 Z" stroke-linecap="round"/>
</g>
		<g transform="matrix(1 0 0 1 277.8857 55.3115)">
<path style="stroke: none; stroke-width: 1; stroke-dasharray: none; stroke-linecap: butt; stroke-dashoffset: 0; stroke-linejoin: miter; stroke-miterlimit: 4; is-custom-font: none; font-file-url: none; fill: rgb(204,204,204); fill-rule: nonzero; opacity: 1;" transform=" translate(-877.8857, -505.3114)" d="M 862.46778 537.44189 l -2.00415 -45.9414 c -1.51977 -8.63623 3.42408 -16.80029 11.02735 -18.13477 c 7.60547 -1.32959 15.03174 4.66016 16.55835 13.35987 l 7.533 42.92773 Z" stroke-linecap="round"/>
</g>
		<g transform="matrix(1 0 0 1 245.1021 226.7524)">
<path style="stroke: none; stroke-width: 1; stroke-dasharray: none; stroke-linecap: butt; stroke-dashoffset: 0; stroke-linejoin: miter; stroke-miterlimit: 4; is-custom-font: none; font-file-url: none; fill: rgb(47,46,65); fill-rule: nonzero; opacity: 1;" transform=" translate(-845.1021, -676.7524)" d="M 877.13341 593.75241 c 11.91455 45.37671 13.21436 103.06939 10 166 l -16 -2 l -29 -120 l -16 122 l -18 -1 c -5.37744 -66.02973 -10.61328 -122.71527 -2 -160 Z" stroke-linecap="round"/>
</g>
		<g transform="matrix(1 0 0 1 241.7371 -28.4348)">
<path style="stroke: none; stroke-width: 1; stroke-dasharray: none; stroke-linecap: butt; stroke-dashoffset: 0; stroke-linejoin: miter; stroke-miterlimit: 4; is-custom-font: none; font-file-url: none; fill: rgb(47,46,65); fill-rule: nonzero; opacity: 1;" transform=" translate(-841.7372, -421.5652)" d="M 858.70645 447.73782 c -4.582 4.88078 -13.09131 2.26066 -13.68835 -4.40717 a 8.05477 8.05477 0 0 1 0.01014 -1.5557 c 0.30826 -2.95357 2.01461 -5.635 1.60587 -8.7536 a 4.59042 4.59042 0 0 0 -0.84011 -2.14891 c -3.65124 -4.88934 -12.22227 2.18687 -15.6682 -2.2393 c -2.113 -2.714 0.3708 -6.98712 -1.25065 -10.02051 c -2.14006 -4.00357 -8.47881 -2.0286 -12.45388 -4.22115 c -4.42275 -2.43949 -4.15821 -9.22525 -1.24686 -13.35269 c 3.55052 -5.0336 9.77572 -7.71952 15.92336 -8.10661 s 12.25292 1.27475 17.99229 3.51145 c 6.52109 2.54134 12.98768 6.05351 17.00067 11.78752 c 4.88021 6.97317 5.34986 16.34794 2.90917 24.50175 C 867.5152 437.69294 862.44812 443.75214 858.70645 447.73782 Z" stroke-linecap="round"/>
</g>
		<g transform="matrix(1 0 0 1 236.561 336)">
<path style="stroke: none; stroke-width: 1; stroke-dasharray: none; stroke-linecap: butt; stroke-dashoffset: 0; stroke-linejoin: miter; stroke-miterlimit: 4; is-custom-font: none; font-file-url: none; fill: rgb(63,61,86); fill-rule: nonzero; opacity: 1;" transform=" translate(-836.561, -786)" d="M 1027.061 787 h -381 a 1 1 0 0 1 0 -2 h 381 a 1 1 0 0 1 0 2 Z" stroke-linecap="round"/>
</g>
</g>
</g>
</svg>